<mxfile host="app.diagrams.net" agent="Mozilla/5.0 (Macintosh; Intel Mac OS X 10_15_7) AppleWebKit/537.36 (KHTML, like Gecko) Chrome/130.0.0.0 Safari/537.36" version="25.0.3">
  <diagram name="Page-1" id="MkAuHWcBFZ8Ycd1p-szB">
    <mxGraphModel dx="1501" dy="595" grid="0" gridSize="10" guides="1" tooltips="1" connect="1" arrows="1" fold="1" page="0" pageScale="1" pageWidth="827" pageHeight="1169" math="0" shadow="0">
      <root>
        <mxCell id="0" />
        <mxCell id="1" parent="0" />
        <mxCell id="l8auqSjwiv6IMwPf-op2-2" value="" style="whiteSpace=wrap;html=1;aspect=fixed;" vertex="1" parent="1">
          <mxGeometry x="231" y="275" width="49" height="49" as="geometry" />
        </mxCell>
        <mxCell id="l8auqSjwiv6IMwPf-op2-3" value="" style="whiteSpace=wrap;html=1;aspect=fixed;" vertex="1" parent="1">
          <mxGeometry x="241" y="285" width="49" height="49" as="geometry" />
        </mxCell>
        <mxCell id="l8auqSjwiv6IMwPf-op2-4" value="" style="whiteSpace=wrap;html=1;aspect=fixed;" vertex="1" parent="1">
          <mxGeometry x="251" y="295" width="49" height="49" as="geometry" />
        </mxCell>
        <mxCell id="l8auqSjwiv6IMwPf-op2-5" value="" style="whiteSpace=wrap;html=1;aspect=fixed;" vertex="1" parent="1">
          <mxGeometry x="261" y="305" width="49" height="49" as="geometry" />
        </mxCell>
        <mxCell id="l8auqSjwiv6IMwPf-op2-6" value="" style="whiteSpace=wrap;html=1;aspect=fixed;" vertex="1" parent="1">
          <mxGeometry x="271" y="315" width="49" height="49" as="geometry" />
        </mxCell>
        <mxCell id="l8auqSjwiv6IMwPf-op2-7" value="" style="whiteSpace=wrap;html=1;aspect=fixed;" vertex="1" parent="1">
          <mxGeometry x="281" y="325" width="49" height="49" as="geometry" />
        </mxCell>
        <mxCell id="l8auqSjwiv6IMwPf-op2-8" value="1 @28*28" style="text;html=1;align=center;verticalAlign=middle;whiteSpace=wrap;rounded=0;" vertex="1" parent="1">
          <mxGeometry x="36.5" y="214" width="60" height="30" as="geometry" />
        </mxCell>
        <mxCell id="l8auqSjwiv6IMwPf-op2-9" value="6 @12*12" style="text;html=1;align=center;verticalAlign=middle;whiteSpace=wrap;rounded=0;" vertex="1" parent="1">
          <mxGeometry x="245.5" y="214" width="60" height="30" as="geometry" />
        </mxCell>
        <mxCell id="l8auqSjwiv6IMwPf-op2-11" value="" style="endArrow=classic;html=1;rounded=0;" edge="1" parent="1">
          <mxGeometry width="50" height="50" relative="1" as="geometry">
            <mxPoint x="133" y="320" as="sourcePoint" />
            <mxPoint x="212" y="320" as="targetPoint" />
          </mxGeometry>
        </mxCell>
        <mxCell id="l8auqSjwiv6IMwPf-op2-12" value="6 Filters" style="text;html=1;align=center;verticalAlign=middle;whiteSpace=wrap;rounded=0;" vertex="1" parent="1">
          <mxGeometry x="136" y="288" width="60" height="30" as="geometry" />
        </mxCell>
        <mxCell id="l8auqSjwiv6IMwPf-op2-13" value="Kernel 5*5&amp;nbsp;&lt;div&gt;stride 1&lt;/div&gt;&lt;div&gt;No padding&lt;/div&gt;&lt;div&gt;Avg Pooling&lt;/div&gt;" style="text;html=1;align=center;verticalAlign=middle;whiteSpace=wrap;rounded=0;" vertex="1" parent="1">
          <mxGeometry x="139" y="340" width="68" height="30" as="geometry" />
        </mxCell>
        <mxCell id="l8auqSjwiv6IMwPf-op2-14" value="" style="whiteSpace=wrap;html=1;aspect=fixed;" vertex="1" parent="1">
          <mxGeometry x="420" y="246" width="22" height="22" as="geometry" />
        </mxCell>
        <mxCell id="l8auqSjwiv6IMwPf-op2-19" value="" style="whiteSpace=wrap;html=1;aspect=fixed;" vertex="1" parent="1">
          <mxGeometry x="430" y="256" width="22" height="22" as="geometry" />
        </mxCell>
        <mxCell id="l8auqSjwiv6IMwPf-op2-23" value="" style="whiteSpace=wrap;html=1;aspect=fixed;" vertex="1" parent="1">
          <mxGeometry x="470" y="296" width="22" height="22" as="geometry" />
        </mxCell>
        <mxCell id="l8auqSjwiv6IMwPf-op2-24" value="" style="whiteSpace=wrap;html=1;aspect=fixed;" vertex="1" parent="1">
          <mxGeometry x="480" y="306" width="22" height="22" as="geometry" />
        </mxCell>
        <mxCell id="l8auqSjwiv6IMwPf-op2-25" value="" style="whiteSpace=wrap;html=1;aspect=fixed;" vertex="1" parent="1">
          <mxGeometry x="490" y="316" width="22" height="22" as="geometry" />
        </mxCell>
        <mxCell id="l8auqSjwiv6IMwPf-op2-26" value="" style="whiteSpace=wrap;html=1;aspect=fixed;" vertex="1" parent="1">
          <mxGeometry x="500" y="326" width="22" height="22" as="geometry" />
        </mxCell>
        <mxCell id="l8auqSjwiv6IMwPf-op2-27" value="" style="whiteSpace=wrap;html=1;aspect=fixed;" vertex="1" parent="1">
          <mxGeometry x="510" y="336" width="22" height="22" as="geometry" />
        </mxCell>
        <mxCell id="l8auqSjwiv6IMwPf-op2-28" value="" style="whiteSpace=wrap;html=1;aspect=fixed;" vertex="1" parent="1">
          <mxGeometry x="520" y="346" width="22" height="22" as="geometry" />
        </mxCell>
        <mxCell id="l8auqSjwiv6IMwPf-op2-29" value="" style="whiteSpace=wrap;html=1;aspect=fixed;" vertex="1" parent="1">
          <mxGeometry x="530" y="356" width="22" height="22" as="geometry" />
        </mxCell>
        <mxCell id="l8auqSjwiv6IMwPf-op2-30" value="" style="whiteSpace=wrap;html=1;aspect=fixed;" vertex="1" parent="1">
          <mxGeometry x="540" y="366" width="22" height="22" as="geometry" />
        </mxCell>
        <mxCell id="l8auqSjwiv6IMwPf-op2-31" value="" style="whiteSpace=wrap;html=1;aspect=fixed;" vertex="1" parent="1">
          <mxGeometry x="550" y="376" width="22" height="22" as="geometry" />
        </mxCell>
        <mxCell id="l8auqSjwiv6IMwPf-op2-32" value="" style="endArrow=classic;html=1;rounded=0;" edge="1" parent="1">
          <mxGeometry width="50" height="50" relative="1" as="geometry">
            <mxPoint x="355" y="324" as="sourcePoint" />
            <mxPoint x="434" y="324" as="targetPoint" />
          </mxGeometry>
        </mxCell>
        <mxCell id="l8auqSjwiv6IMwPf-op2-33" value="16 Filters" style="text;html=1;align=center;verticalAlign=middle;whiteSpace=wrap;rounded=0;" vertex="1" parent="1">
          <mxGeometry x="355" y="292" width="60" height="30" as="geometry" />
        </mxCell>
        <mxCell id="l8auqSjwiv6IMwPf-op2-34" value="Kernel 5*5&amp;nbsp;&lt;div&gt;stride 1&lt;/div&gt;&lt;div&gt;No padding&lt;/div&gt;&lt;div&gt;Avg Pooling&lt;/div&gt;" style="text;html=1;align=center;verticalAlign=middle;whiteSpace=wrap;rounded=0;" vertex="1" parent="1">
          <mxGeometry x="358" y="346" width="68" height="30" as="geometry" />
        </mxCell>
        <mxCell id="l8auqSjwiv6IMwPf-op2-35" value="16 @4*4" style="text;html=1;align=center;verticalAlign=middle;whiteSpace=wrap;rounded=0;" vertex="1" parent="1">
          <mxGeometry x="435" y="214" width="60" height="30" as="geometry" />
        </mxCell>
        <mxCell id="l8auqSjwiv6IMwPf-op2-36" value="" style="endArrow=none;dashed=1;html=1;dashPattern=1 3;strokeWidth=2;rounded=0;" edge="1" parent="1">
          <mxGeometry width="50" height="50" relative="1" as="geometry">
            <mxPoint x="444" y="286" as="sourcePoint" />
            <mxPoint x="465" y="307" as="targetPoint" />
          </mxGeometry>
        </mxCell>
        <mxCell id="l8auqSjwiv6IMwPf-op2-38" value="Flatten" style="text;html=1;align=center;verticalAlign=middle;whiteSpace=wrap;rounded=0;" vertex="1" parent="1">
          <mxGeometry x="550" y="294" width="60" height="30" as="geometry" />
        </mxCell>
        <mxCell id="l8auqSjwiv6IMwPf-op2-39" value="" style="endArrow=classic;html=1;rounded=0;" edge="1" parent="1">
          <mxGeometry width="50" height="50" relative="1" as="geometry">
            <mxPoint x="542" y="325" as="sourcePoint" />
            <mxPoint x="621" y="325" as="targetPoint" />
          </mxGeometry>
        </mxCell>
        <mxCell id="l8auqSjwiv6IMwPf-op2-41" value="256" style="text;html=1;align=center;verticalAlign=middle;whiteSpace=wrap;rounded=0;" vertex="1" parent="1">
          <mxGeometry x="622.5" y="149" width="60" height="30" as="geometry" />
        </mxCell>
        <mxCell id="l8auqSjwiv6IMwPf-op2-43" value="" style="rounded=0;whiteSpace=wrap;html=1;" vertex="1" parent="1">
          <mxGeometry x="646" y="181.5" width="13" height="291" as="geometry" />
        </mxCell>
        <mxCell id="l8auqSjwiv6IMwPf-op2-44" value="" style="rounded=0;whiteSpace=wrap;html=1;" vertex="1" parent="1">
          <mxGeometry x="719" y="199.5" width="13" height="255" as="geometry" />
        </mxCell>
        <mxCell id="l8auqSjwiv6IMwPf-op2-45" value="120" style="text;html=1;align=center;verticalAlign=middle;whiteSpace=wrap;rounded=0;" vertex="1" parent="1">
          <mxGeometry x="695.5" y="160" width="60" height="30" as="geometry" />
        </mxCell>
        <mxCell id="l8auqSjwiv6IMwPf-op2-46" value="" style="rounded=0;whiteSpace=wrap;html=1;" vertex="1" parent="1">
          <mxGeometry x="792" y="221.5" width="13" height="216" as="geometry" />
        </mxCell>
        <mxCell id="l8auqSjwiv6IMwPf-op2-47" value="84" style="text;html=1;align=center;verticalAlign=middle;whiteSpace=wrap;rounded=0;" vertex="1" parent="1">
          <mxGeometry x="768.5" y="184" width="60" height="30" as="geometry" />
        </mxCell>
        <mxCell id="l8auqSjwiv6IMwPf-op2-53" value="" style="endArrow=classic;html=1;rounded=0;" edge="1" parent="1">
          <mxGeometry width="50" height="50" relative="1" as="geometry">
            <mxPoint x="666" y="219" as="sourcePoint" />
            <mxPoint x="712" y="239" as="targetPoint" />
          </mxGeometry>
        </mxCell>
        <mxCell id="l8auqSjwiv6IMwPf-op2-54" value="" style="endArrow=classic;html=1;rounded=0;" edge="1" parent="1">
          <mxGeometry width="50" height="50" relative="1" as="geometry">
            <mxPoint x="666" y="228" as="sourcePoint" />
            <mxPoint x="709" y="413" as="targetPoint" />
          </mxGeometry>
        </mxCell>
        <mxCell id="l8auqSjwiv6IMwPf-op2-55" value="" style="endArrow=classic;html=1;rounded=0;" edge="1" parent="1">
          <mxGeometry width="50" height="50" relative="1" as="geometry">
            <mxPoint x="673" y="459" as="sourcePoint" />
            <mxPoint x="709" y="421" as="targetPoint" />
          </mxGeometry>
        </mxCell>
        <mxCell id="l8auqSjwiv6IMwPf-op2-56" value="" style="endArrow=classic;html=1;rounded=0;" edge="1" parent="1">
          <mxGeometry width="50" height="50" relative="1" as="geometry">
            <mxPoint x="670" y="450" as="sourcePoint" />
            <mxPoint x="711" y="243" as="targetPoint" />
          </mxGeometry>
        </mxCell>
        <mxCell id="l8auqSjwiv6IMwPf-op2-58" value="" style="endArrow=classic;html=1;rounded=0;" edge="1" parent="1">
          <mxGeometry width="50" height="50" relative="1" as="geometry">
            <mxPoint x="742" y="243" as="sourcePoint" />
            <mxPoint x="788" y="263" as="targetPoint" />
          </mxGeometry>
        </mxCell>
        <mxCell id="l8auqSjwiv6IMwPf-op2-59" value="" style="endArrow=classic;html=1;rounded=0;" edge="1" parent="1">
          <mxGeometry width="50" height="50" relative="1" as="geometry">
            <mxPoint x="742" y="249" as="sourcePoint" />
            <mxPoint x="782" y="390" as="targetPoint" />
          </mxGeometry>
        </mxCell>
        <mxCell id="l8auqSjwiv6IMwPf-op2-60" value="" style="endArrow=classic;html=1;rounded=0;" edge="1" parent="1">
          <mxGeometry width="50" height="50" relative="1" as="geometry">
            <mxPoint x="745.81" y="436" as="sourcePoint" />
            <mxPoint x="781.81" y="398" as="targetPoint" />
          </mxGeometry>
        </mxCell>
        <mxCell id="l8auqSjwiv6IMwPf-op2-61" value="" style="endArrow=classic;html=1;rounded=0;" edge="1" parent="1">
          <mxGeometry width="50" height="50" relative="1" as="geometry">
            <mxPoint x="743" y="426" as="sourcePoint" />
            <mxPoint x="783" y="270" as="targetPoint" />
          </mxGeometry>
        </mxCell>
        <mxCell id="l8auqSjwiv6IMwPf-op2-62" value="" style="endArrow=classic;html=1;rounded=0;" edge="1" parent="1">
          <mxGeometry width="50" height="50" relative="1" as="geometry">
            <mxPoint x="817" y="263" as="sourcePoint" />
            <mxPoint x="863" y="283" as="targetPoint" />
          </mxGeometry>
        </mxCell>
        <mxCell id="l8auqSjwiv6IMwPf-op2-63" value="" style="endArrow=classic;html=1;rounded=0;" edge="1" parent="1">
          <mxGeometry width="50" height="50" relative="1" as="geometry">
            <mxPoint x="819" y="270" as="sourcePoint" />
            <mxPoint x="859" y="380" as="targetPoint" />
          </mxGeometry>
        </mxCell>
        <mxCell id="l8auqSjwiv6IMwPf-op2-64" value="" style="endArrow=classic;html=1;rounded=0;" edge="1" parent="1">
          <mxGeometry width="50" height="50" relative="1" as="geometry">
            <mxPoint x="824" y="422" as="sourcePoint" />
            <mxPoint x="860" y="384" as="targetPoint" />
          </mxGeometry>
        </mxCell>
        <mxCell id="l8auqSjwiv6IMwPf-op2-65" value="" style="endArrow=classic;html=1;rounded=0;" edge="1" parent="1">
          <mxGeometry width="50" height="50" relative="1" as="geometry">
            <mxPoint x="822" y="415" as="sourcePoint" />
            <mxPoint x="860" y="289" as="targetPoint" />
          </mxGeometry>
        </mxCell>
        <mxCell id="l8auqSjwiv6IMwPf-op2-66" value="" style="rounded=0;whiteSpace=wrap;html=1;" vertex="1" parent="1">
          <mxGeometry x="877" y="285" width="13" height="9" as="geometry" />
        </mxCell>
        <mxCell id="l8auqSjwiv6IMwPf-op2-67" value="10" style="text;html=1;align=center;verticalAlign=middle;whiteSpace=wrap;rounded=0;" vertex="1" parent="1">
          <mxGeometry x="851.5" y="252" width="60" height="30" as="geometry" />
        </mxCell>
        <mxCell id="l8auqSjwiv6IMwPf-op2-68" value="MNIST Image" style="text;html=1;align=center;verticalAlign=middle;whiteSpace=wrap;rounded=0;" vertex="1" parent="1">
          <mxGeometry x="23.75" y="503" width="85.5" height="30" as="geometry" />
        </mxCell>
        <mxCell id="l8auqSjwiv6IMwPf-op2-69" value="C1" style="text;html=1;align=center;verticalAlign=middle;whiteSpace=wrap;rounded=0;" vertex="1" parent="1">
          <mxGeometry x="252.75" y="501" width="37.25" height="30" as="geometry" />
        </mxCell>
        <mxCell id="l8auqSjwiv6IMwPf-op2-70" value="C2" style="text;html=1;align=center;verticalAlign=middle;whiteSpace=wrap;rounded=0;" vertex="1" parent="1">
          <mxGeometry x="492" y="503" width="42.25" height="30" as="geometry" />
        </mxCell>
        <mxCell id="l8auqSjwiv6IMwPf-op2-71" value="&amp;nbsp;FC1" style="text;html=1;align=center;verticalAlign=middle;whiteSpace=wrap;rounded=0;" vertex="1" parent="1">
          <mxGeometry x="705.1899999999999" y="503" width="40.62" height="30" as="geometry" />
        </mxCell>
        <mxCell id="l8auqSjwiv6IMwPf-op2-73" value="&amp;nbsp;FC2" style="text;html=1;align=center;verticalAlign=middle;whiteSpace=wrap;rounded=0;" vertex="1" parent="1">
          <mxGeometry x="778.1899999999999" y="503" width="40.62" height="30" as="geometry" />
        </mxCell>
        <mxCell id="l8auqSjwiv6IMwPf-op2-74" value="&amp;nbsp;FC3" style="text;html=1;align=center;verticalAlign=middle;whiteSpace=wrap;rounded=0;" vertex="1" parent="1">
          <mxGeometry x="861.1899999999999" y="503" width="40.62" height="30" as="geometry" />
        </mxCell>
        <mxCell id="l8auqSjwiv6IMwPf-op2-76" value="Convolutional Layers" style="text;html=1;align=center;verticalAlign=middle;whiteSpace=wrap;rounded=0;strokeColor=default;" vertex="1" parent="1">
          <mxGeometry x="243" y="559" width="318" height="30" as="geometry" />
        </mxCell>
        <mxCell id="l8auqSjwiv6IMwPf-op2-77" value="Fully Connected Layers" style="text;html=1;align=center;verticalAlign=middle;whiteSpace=wrap;rounded=0;strokeColor=default;" vertex="1" parent="1">
          <mxGeometry x="712" y="559" width="195" height="30" as="geometry" />
        </mxCell>
        <mxCell id="l8auqSjwiv6IMwPf-op2-78" value="" style="shape=image;verticalLabelPosition=bottom;labelBackgroundColor=default;verticalAlign=top;aspect=fixed;imageAspect=0;image=data:image/png,iVBORw0KGgoAAAANSUhEUgAAAaIAAAF6CAYAAABbZlwtAAAMQGlDQ1BJQ0MgUHJvZmlsZQAASImVVwdYU8kWnluSkEBCCSAgJfQmCEgJICWEFkB6EWyEJEAoMQaCiB1dVHDtYgEbuiqi2AGxI3YWwd4XRRSUdbFgV96kgK77yvfm++bOf/85858z5869cwcA9VNcsTgH1QAgV5QviQ0JYIxNTmGQugEZUAANGANXLi9PzIqOjgCwDLZ/L+9uAkTWXnOQaf2z/78WTb4gjwcAEg1xGj+PlwvxIQDwSp5Ykg8AUcabT80XyzCsQFsCA4R4oQxnKHClDKcp8D65TXwsG+JmAFTUuFxJBgC0NsgzCngZUIPWB7GTiC8UAaDOgNg3N3cyH+JUiG2gjRhimT4z7QedjL9ppg1pcrkZQ1gxF3lRCRTmiXO40/7PdPzvkpsjHfRhBatapiQ0VjZnmLfb2ZPDZVgN4l5RWmQUxFoQfxDy5fYQo5RMaWiCwh415OWxYc6ALsROfG5gOMSGEAeLciIjlHxaujCYAzFcIWihMJ8TD7EexAsFeUFxSpvNksmxSl9oXbqEzVLyF7gSuV+Zr4fS7ASWUv91poCj1MdoRZnxSRBTILYoECZGQkyD2DEvOy5caTO6KJMdOWgjkcbK4reAOFYgCglQ6GMF6ZLgWKV9aW7e4HyxzZlCTqQSH8jPjA9V5Adr5nHl8cO5YG0CESthUEeQNzZicC58QWCQYu5Yt0CUEKfU+SDOD4hVjMUp4pxopT1uJsgJkfFmELvmFcQpx+KJ+XBBKvTxdHF+dLwiTrwoixsWrYgHXwYiABsEAgaQwpoGJoMsIGztre+Fd4qeYMAFEpABBMBByQyOSJL3iOA1DhSBPyESgLyhcQHyXgEogPzXIVZxdQDp8t4C+Yhs8BTiXBAOcuC9VD5KNOQtETyBjPAf3rmw8mC8ObDK+v89P8h+Z1iQiVAy0kGPDPVBS2IQMZAYSgwm2uIGuC/ujUfAqz+sLjgT9xycx3d7wlNCO+Ex4Qahg3BnkrBY8lOUY0AH1A9W5iLtx1zgVlDTDQ/AfaA6VMZ1cQPggLtCPyzcD3p2gyxbGbcsK4yftP82gx+ehtKO7ERGycPI/mSbn0fS7GhuQyqyXP+YH0WsaUP5Zg/1/Oyf/UP2+bAN/9kSW4gdxM5jp7GL2DGsHjCwk1gD1oIdl+Gh1fVEvroGvcXK48mGOsJ/+Bt8srJM5jnVOPU4fVH05QsKZd9owJ4sniYRZmTmM1hwRxAwOCKe4wiGi5OLKwCy/UXx+XoTI983EN2W79y8PwDwOTkwMHD0Oxd2EoD9HvD1P/Kds2HCrUMVgAtHeFJJgYLDZRcC/EqowzdNH+5d5sAGzscFuANv4A+CQBiIAvEgGUyE0WfCdS4BU8EMMBeUgDKwDKwG68EmsBXsBHvAAVAPjoHT4By4DNrADXAPrp4u8AL0gXfgM4IgJISK0BF9xASxROwRF4SJ+CJBSAQSiyQjqUgGIkKkyAxkHlKGrEDWI1uQamQ/cgQ5jVxE2pE7yCOkB3mNfEIxVA3VRo1QK3QkykRZaDgaj05AM9ApaBE6H12CrkWr0N1oHXoavYzeQDvQF2g/BjBVTBczxRwwJsbGorAULB2TYLOwUqwcq8JqsUb4nK9hHVgv9hEn4nScgTvAFRyKJ+A8fAo+C1+Mr8d34nV4M34Nf4T34d8IVIIhwZ7gReAQxhIyCFMJJYRywnbCYcJZ+C51Ed4RiURdojXRA76LycQs4nTiYuIG4l7iKWI7sZPYTyKR9En2JB9SFIlLyieVkNaRdpNOkq6SukgfVFRVTFRcVIJVUlREKsUq5Sq7VE6oXFV5pvKZrEG2JHuRo8h88jTyUvI2ciP5CrmL/JmiSbGm+FDiKVmUuZS1lFrKWcp9yhtVVVUzVU/VGFWh6hzVtar7VC+oPlL9qKalZqfGVhuvJlVborZD7ZTaHbU3VCrViupPTaHmU5dQq6lnqA+pH2h0miONQ+PTZtMqaHW0q7SX6mR1S3WW+kT1IvVy9YPqV9R7NcgaVhpsDa7GLI0KjSMatzT6NemazppRmrmaizV3aV7U7NYiaVlpBWnxteZrbdU6o9VJx+jmdDadR59H30Y/S+/SJmpba3O0s7TLtPdot2r36WjpuOok6hTqVOgc1+nQxXStdDm6ObpLdQ/o3tT9NMxoGGuYYNiiYbXDrg57rzdcz19PoFeqt1fvht4nfYZ+kH62/nL9ev0HBriBnUGMwVSDjQZnDXqHaw/3Hs4bXjr8wPC7hqihnWGs4XTDrYYthv1GxkYhRmKjdUZnjHqNdY39jbOMVxmfMO4xoZv4mghNVpmcNHnO0GGwGDmMtYxmRp+poWmoqdR0i2mr6Wcza7MEs2KzvWYPzCnmTPN081XmTeZ9FiYWYyxmWNRY3LUkWzItMy3XWJ63fG9lbZVktcCq3qrbWs+aY11kXWN934Zq42czxabK5rot0ZZpm227wbbNDrVzs8u0q7C7Yo/au9sL7TfYt48gjPAcIRpRNeKWg5oDy6HAocbhkaOuY4RjsWO948uRFiNTRi4feX7kNyc3pxynbU73nLWcw5yLnRudX7vYufBcKlyuj6KOCh41e1TDqFeu9q4C142ut93obmPcFrg1uX1193CXuNe693hYeKR6VHrcYmozo5mLmRc8CZ4BnrM9j3l+9HL3yvc64PWXt4N3tvcu7+7R1qMFo7eN7vQx8+H6bPHp8GX4pvpu9u3wM/Xj+lX5PfY39+f7b/d/xrJlZbF2s14GOAVIAg4HvGd7sWeyTwVigSGBpYGtQVpBCUHrgx4GmwVnBNcE94W4hUwPORVKCA0PXR56i2PE4XGqOX1hHmEzw5rD1cLjwteHP46wi5BENI5Bx4SNWTnmfqRlpCiyPgpEcaJWRj2Ito6eEn00hhgTHVMR8zTWOXZG7Pk4etykuF1x7+ID4pfG30uwSZAmNCWqJ45PrE58nxSYtCKpY+zIsTPHXk42SBYmN6SQUhJTtqf0jwsat3pc13i38SXjb06wnlA44eJEg4k5E49PUp/EnXQwlZCalLor9Qs3ilvF7U/jpFWm9fHYvDW8F3x//ip+j8BHsELwLN0nfUV6d4ZPxsqMnky/zPLMXiFbuF74Kis0a1PW++yo7B3ZAzlJOXtzVXJTc4+ItETZoubJxpMLJ7eL7cUl4o4pXlNWT+mThEu25yF5E/Ia8rXhj3yL1Eb6i/RRgW9BRcGHqYlTDxZqFooKW6bZTVs07VlRcNFv0/HpvOlNM0xnzJ3xaCZr5pZZyKy0WU2zzWfPn901J2TOzrmUudlzfy92Kl5R/HZe0rzG+Ubz58zv/CXkl5oSWomk5NYC7wWbFuILhQtbF41atG7Rt1J+6aUyp7Lysi+LeYsv/er869pfB5akL2ld6r504zLiMtGym8v9lu9cobmiaEXnyjEr61YxVpWuert60uqL5a7lm9ZQ1kjXdKyNWNuwzmLdsnVf1meuv1ERULG30rByUeX7DfwNVzf6b6zdZLSpbNOnzcLNt7eEbKmrsqoq30rcWrD16bbEbed/Y/5Wvd1ge9n2rztEOzp2xu5srvaort5luGtpDVojrenZPX53257APQ21DrVb9uruLdsH9kn3Pd+fuv/mgfADTQeZB2sPWR6qPEw/XFqH1E2r66vPrO9oSG5oPxJ2pKnRu/HwUcejO46ZHqs4rnN86QnKifknBk4Wnew/JT7VezrjdGfTpKZ7Z8aeud4c09x6NvzshXPB586cZ50/ecHnwrGLXhePXGJeqr/sfrmuxa3l8O9uvx9udW+tu+JxpaHNs62xfXT7iat+V09fC7x27jrn+uUbkTfabybcvH1r/K2O2/zb3Xdy7ry6W3D387059wn3Sx9oPCh/aPiw6g/bP/Z2uHccfxT4qOVx3ON7nbzOF0/ynnzpmv+U+rT8mcmz6m6X7mM9wT1tz8c973ohfvG5t+RPzT8rX9q8PPSX/18tfWP7ul5JXg28XvxG/82Ot65vm/qj+x++y333+X3pB/0POz8yP57/lPTp2eepX0hf1n61/dr4Lfzb/YHcgQExV8KV/wpgsKLp6QC83gEANRkAOjyfUcYpzn/ygijOrHIE/hNWnBHlxR2AWvj/HtML/25uAbBvGzx+QX318QBEUwGI9wToqFFDdfCsJj9XygoRngM2R35Ny00D/6Yozpw/xP1zC2SqruDn9l+Q6nx9NLQJ6AAAAIplWElmTU0AKgAAAAgABAEaAAUAAAABAAAAPgEbAAUAAAABAAAARgEoAAMAAAABAAIAAIdpAAQAAAABAAAATgAAAAAAAACQAAAAAQAAAJAAAAABAAOShgAHAAAAEgAAAHigAgAEAAAAAQAAAaKgAwAEAAAAAQAAAXoAAAAAQVNDSUkAAABTY3JlZW5zaG9067Hj9wAAAAlwSFlzAAAWJQAAFiUBSVIk8AAAAdZpVFh0WE1MOmNvbS5hZG9iZS54bXAAAAAAADx4OnhtcG1ldGEgeG1sbnM6eD0iYWRvYmU6bnM6bWV0YS8iIHg6eG1wdGs9IlhNUCBDb3JlIDYuMC4wIj4KICAgPHJkZjpSREYgeG1sbnM6cmRmPSJodHRwOi8vd3d3LnczLm9yZy8xOTk5LzAyLzIyLXJkZi1zeW50YXgtbnMjIj4KICAgICAgPHJkZjpEZXNjcmlwdGlvbiByZGY6YWJvdXQ9IiIKICAgICAgICAgICAgeG1sbnM6ZXhpZj0iaHR0cDovL25zLmFkb2JlLmNvbS9leGlmLzEuMC8iPgogICAgICAgICA8ZXhpZjpQaXhlbFlEaW1lbnNpb24+Mzc4PC9leGlmOlBpeGVsWURpbWVuc2lvbj4KICAgICAgICAgPGV4aWY6UGl4ZWxYRGltZW5zaW9uPjQxODwvZXhpZjpQaXhlbFhEaW1lbnNpb24+CiAgICAgICAgIDxleGlmOlVzZXJDb21tZW50PlNjcmVlbnNob3Q8L2V4aWY6VXNlckNvbW1lbnQ+CiAgICAgIDwvcmRmOkRlc2NyaXB0aW9uPgogICA8L3JkZjpSREY+CjwveDp4bXBtZXRhPgrXqVXqAAAAHGlET1QAAAACAAAAAAAAAL0AAAAoAAAAvQAAAL0AABFZut9VRwAAESVJREFUeAHs3a9v3dYCB3BPGhgYCAgYGAgoGIjUgkkZmJSxhjUssDCwf0tgYGBYw1q2SAObVNBKBQMDAQUDBQUDA5Xe29fvnW3vh9prX9vH9v1Yiu7S+PrYn3O0r459zvEn//hja2wECBAgQKCSwCeCqJK8YgkQIECgFRBEGgIBAgQIVBUQRFX5FU6AAAECgkgbIECAAIGqAoKoKr/CCRAgQEAQaQMECBAgUFVAEFXlVzgBAgQICCJtgAABAgSqCgiiqvwKJ0CAAAFBpA0QIECAQFUBQVSVX+EECBAgIIi0AQIECBCoKiCIqvIrnAABAgQEkTZAgAABAlUFBFFVfoUTIECAgCDSBggQIECgqoAgqsqvcAIECBAQRNoAAQIECFQVEERV+RVOgAABAoJIGyBAgACBqgKCqCq/wgkQIEBAEGkDBAgQIFBVQBBV5Vc4AQIECAgibYAAAQIEqgoIoqr8CidAgAABQaQNECBAgEBVAUFUlV/hBAgQICCItAECBAgQqCogiKryK5wAAQIEBJE2QIAAAQJVBQRRVX6FEyBAgIAg0gYIECBAoKqAIKrKr3ACBAgQEETaAAECBAhUFRBEVfkVToAAAQKCSBsgQIAAgaoCgqgqv8IJECBAQBBpAwQIECBQVUAQVeVXOAECBAgIIm2AAAECBKoKCKKq/AonQIAAAUGkDRAgQIBAVQFBVJVf4QQIECAgiLQBAgQIEKgqIIiq8iucAAECBASRNkCAAAECVQUEUVV+hRMgQICAINIGCBAgQKCqgCCqyq9wAgQIEBBE2gABAgQIVBUQRFX5FU6AAAECgkgbIECAAIGqAoKoKr/CCRAgQEAQaQMECBAgUFVAEFXlVzgBAgQICCJtgAABAgSqCgiiqvwKJ0CAAAFBpA0QIECAQFUBQVSVX+EECBAgIIi0AQIECBCoKiCIqvIrnAABAgQEkTZAgAABAlUFBFFVfoUTIECAgCDSBggQIECgqoAgqsqvcAIECBAQRNoAAQIECFQVEERV+RVOgAABAoJIGyBAgACBqgKCqCq/wgkQIEBAEGkDBAgQIFBVQBBV5Vc4AQIECAgibYAAAQIEqgoIoqr8CidAgAABQaQNECBAgEBVAUFUlV/hBAgQICCItAECBAgQqCogiKryK5wAAQIEBJE2QIAAAQJVBQRRVX6FEyBAgIAg0gYIECBAoKqAIKrKr3ACBAgQEETawGgC79+/b37//ffmt99+a969e9d+5vf8u216gc8++6zZ29v78ye/2wjMQUAQzaEWVnoOCaBff/21+eWXX5pXr161n/k9/26bXuCLL75o7t+/3zx48KD9ye82AnMQEERzqIWVnsObN2+aH3/8sXnx4oUgmkEdlyD6+uuvm2+++ab56quvmvzb559/PoOzcwq7LCCIdrn2R772BNDl5WXzww8/uDU3svUmhy+35r788ss2hBJGDx8+bO7du7fJ1+1DYDQBQTQa7e4eOM+B8kzo+++/by4uLtpe0e5qzO/K0wNKT+jbb79tHj9+3KSHlJD69NNP53eyzmgnBATRTlTztBeZ50AvX75sg+jm5qb5+eefpz0BpX1QIIGT4EkAJYgSSG7RfZDMH0cWEEQjA+/i4e/u7toQSo/o9va2ye+2+QnkGdGjR4+a7777zuCF+VXPTp2RINqp6p7mYgXRNM7blpJeUEbQJYgSSAkmG4EaAoKohvrKyyyj5dIjev78eTtse+WXvMjL29/fb8MnQXR2dtYcHh4u8jqc9PIFBNHy63B2V/D27dv2uVCC6Pr6unn9+vXsztEJNU1Gzx0dHbU9opOTE6PnNIpqAoKoGv16Cy4TWTNs++rqqp1HZEWF+dX3wcFBc3x83AZRekX53UaghoAgqqG+8jLL0j6ZR5QgSiBZUWF+lS6I5lcnu3pGgmhXa36C686w7QzfzuoKGcCQMMr8ovSObPUEyvDtDE7IhNYM386ghQxesBGoISCIaqjvSJllPlECKUGUz6w5l3+31RMoE1qzskIGKWQ+URZDtQhqvTrZ9ZIF0a63gBGvvzwrSvDkpyx+Koj6oRfP0qvsu4q5Ydv9/H1rPAFBNJ7tzh+5PCvKrbj85H+k5X+iO4/TAyBBnuHwWbUiYR7PPpuJrH3UfGdMAUE0pq5jExhAoPSEMvgjz9zy2SeIyqKnuRWXW3K5NWdpnwEqyCG2FhBEWxM6AIFxBUpPKKMP0xvKhOE+w+ETOnkfUQYnZN5QekYWOx237hx9MwFBtJmTvQhMLpCwya3M9IAyMTijD/v0hIySm7zqFNhRQBB1BLM7gakEEjrpAaUnlGdDGXXYpydklNxUNaacvgKCqK+c7xEYWSDB8/Tp03Yl8z7D3ktPKEv5ZJ5Qbsl5Ed7IlebwvQQEUS82XyIwvkBuxeXFglmzr89ow9ITyuCErK6dT4MTxq83JXQXEETdzXyDwKgC5dlQAqjPG271hEatHgcfQUAQjYDqkAS2ESjPhhJEfd5wqye0jb7v1hAQRDXUlUngAwLbPhvKM6HMEcqK2p4JfQDan2YjIIhmUxVOhMC/BLZ9NpRnQefn520QeSakVS1BQBAtoZac404IlBUUckvu8vKynT/U5cLLygnpCT158qTtFXX5vn0J1BIQRLXklUvgvwTKCgoJovSKsoJCl62snJAgOj09bVdO6PJ9+xKoJSCIaskrl8C/BcoouW1XULCYqSa1VAFBtNSac96rESij5LZdQSEDFHJLLj0i7xdaTfPYiQsRRDtRzS5yzgLbjpLzbGjOtevcNhEQRJso2YfAiALbjpLzbGjEynHoSQQE0STMCiHwl0B5YWCW7cltudySu7q6ahc4/Wuvj/9XWUEhz4YyXyhryWVNuQSTjcCSBATRkmrLua5CoAzTzsraWVU7gxTu7u7a9eS6XGBZQSHPhvKiu8wf8myoi6B95yIgiOZSE85j9QIlgDIsO8GTAEoQZdh2n80KCn3UfGeOAoJojrXinFYpUOYJlR5QAim35hJQfTYrKPRR8505CgiiOdaKc1qVwFDzhAqKUXJFwudaBATRWmrSdcxWYKh5QuUCjZIrEj7XIiCI1lKTrmN2AqUnlHlCZdmePm9aLRdWekIZJXd8fNyuJWeUXNHxuWQBQbTk2nPusxYoPaHME7q9vW0SSH3etFousvSEyiseEkhGyRUdn0sWEERLrj3nPkuBoXtC5gvNspqd1IACgmhATIciEIGhe0LmC2lXaxcQRGuvYdc3ucC2a8eVEy49ocwXyrOgrJzgjatFx+eaBATRmmrTtcxCYNu148pFlJ5Q5gs9evSoXTkhz4ny7zYCaxIQRGuqTddSVaA8G8oIuYuLi/bldn1OqIyOS08oAxIyOEFPqI+k7yxFQBAtpaac5+wFyrOhBNHNzU07Sq7PSZfRcekJJYQSRnpCfSR9ZykCgmgpNeU8ZytQVtPOs6Fnz561q2n3mS+UodgHBwdt8Ny/f799LmSe0Gyr3YkNKCCIBsR0qN0UKIuZ5tnQ9fV1u5hpn/lCCZ3Hjx+3vaCEUvnJrTobgTULCKI1165rm0Rg21ty5ZlQXvGdV33ndpyNwC4JCKJdqm3XOopAbsnlmVCeDeUdQwmmLlt5JpQgOj09bW/Ndfm+fQksXUAQLb0GnX81gXJLLq91SBDlMyHU9bUOGYyQ4dkJIs+EqlWngisKCKKK+IpetkB5v1Be9Z2eUN4vlCHcGbzQZcutuNySSxBZO66LnH3XIiCI1lKTrmMygTJfKD2gDE7IIIU+PSHPhiarMgXNXEAQzbyCnN78BMrghPSE8qrvPCPq0xPybGh+deuM6ggIojruSl2gwFDzhUpPKM+GvFdogQ3BKQ8uIIgGJ3XAtQqUwQnbzhcqPaE8G8pzoQSSZ0NrbTWuaxMBQbSJkn0I/CFQbsn1XcKnrKad4MnacVlN2yg5TYtA0wgirYDAhgLbzhcqq2mnJ3R2dtaupq0ntCG+3VYtIIhWXb0ubgiBcktu2/lCWU273I6zmvYQNeMYaxEQRGupSdcxmsBQ84Wymvb5+Xn7XMhq2qNVlwMvUEAQLbDSnPI0AkP1hMoouQxMsJbcNHWnlGUJCKJl1ZeznVBgqJ5QGSWXILKW3IQVqKjFCAiixVSVE51KYOiVE8wXmqrmlLNUAUG01Jpz3qMJlGHaQ62cUAYomC80WpU58MIFBNHCK9DpDy+QYdpPnz5tX+vQ502r5gsNXyeOuG4BQbTu+nV1PQSycsLFxUUbRH3etGq+UA90X9lpAUG009Xv4v8uUEbJZeWEy8vL9v1Cf//7x/679IQyXygrJmTlBPOFPqbm7wSsrKANEPhToIySSxClV5T3C3XZSk8o84Xyort8mi/URdC+uyqgR7SrNe+6/xQoPSErJ/xJ4j8ITCogiCblVtgcBUpPaNs3rVo5YY6165yWICCIllBLznEUgaF6QlZOGKV6HHSHBATRDlW2S/1PgaF6QlZO+E9XvxHoKiCIuorZf/ECQ62cUEbJeb/Q4puEC6gsIIgqV4DipxcYauWEMkrO+4Wmr0MlrktAEK2rPl3NBgJDrZxgvtAG2HYhsIGAINoAyS7rEhhq5QTzhdbVLlxNPQFBVM9eyRMLlFFyVk6YGF5xBD4iIIg+AuTP6xEoo+SsnLCeOnUl6xAQROuoR1fxAYEsXHp3d9euHff8+fPm5cuXTQYspIe0yVZGx3kmtImWfQh0FxBE3c18Y2ECCZ6rq6smKyckgMqK2u/fv9/oSsroOM+ENuKyE4HOAoKoM5kvLEVg22dC5Tr39/ebzBXKq77Pzs6aw8PD8iefBAgMICCIBkB0iHkKbPtMqFxVbskdHR21QXRyctLcu3ev/MknAQIDCAiiARAdYl4CQ62cUNaQS2/o+Pi4ycTVvGcoS/rYCBAYTkAQDWfpSDMRGGrlhLKGXAIot+USSHt7e00CykaAwHACgmg4S0eaiUBGyGWIdn5ub2/bEXNdTq2MkrOGXBc1+xLoLyCI+tv55kwFtg2iMkrOGnIzrWCntToBQbS6KnVBfdeSKz0h84W0IQLTCgiiab2VNoFA37XkSk/IfKEJKkkRBP4mIIj+huE/ly1QRsvl2dDFxUWTQOqypSdUBiY8fPjQMO0uePYlsIWAINoCz1fnJVBGyyWIbm5umtyi67KlJ3R+ft6OkMuIufSQbAQIjC8giMY3VsJEApnA+uzZs3a03E8//dS8efNmo5LLfKEM0X7y5EnbK9roi3YiQGAQAUE0CKODzEHg9evXzfX1dRtE6Q29fft2o9Mq84USRKenp+18oY2+aCcCBAYREESDMDpITYHybOjFixdtEOXZUJfVtQ8ODtqVExJE+cnvNgIEphMQRNNZK2kkgfJsKKtr5zUP6Q0lnDZdXVsQjVQxDktgQwFBtCGU3eYr0HfeULkiQVQkfBKoIyCI6rgrdUCBvvOGyikIoiLhk0AdAUFUx12pAwiUZ0N95w2VlRSsKTdAZTgEgS0EBNEWeL5aV6A8G+o7b6ispGBNubr1qHQCgkgbWJxA6Qnl2VBCKLfmXr161Y6U63IxVlLoomVfAuMJCKLxbB15JIHSE0oA5TUPCaR37961I+W6FGklhS5a9iUwnoAgGs/WkUcS2PY1D1ZSGKliHJZATwFB1BPO1+oJbBtEVlKoV3dKJvD/BATR/1Pxb7MW6BtERsnNulqd3A4LCKIdrvylXnrfIDJKbqk17rzXLiCI1l7DK7q+bUfL7e/vtwuaZj25s7Oz5vDwcEU6LoXAcgUE0XLrbufOfNvRchmufXR01C5senJy4sV3O9eCXPBcBQTRXGvGef2PQN9bcuVAZZDCgwcPmvzk9ym2Mkpvb2+vyU9+txEg8JfAPwEAAP//NIZW9gAAE9lJREFU7Z2tbxVNG4fnSRAIRAUJFYgKBKJJEU2oIKGuOHDISiTy+RuQSGRlHXWtaxMETRCQIBAIBAISBAKBIHlffhtu2s7TPWdnP+6d2b0mOTmd0z07M9d9stfOx+7+87/fKZAgUACBT58+hePj4+p1cnISlE9JV69eDSsrK39fynuk1dXVsLGxEe7cuVO9lCdBAAJnBP5BRGcw+CtPAj9//gzfv38PHz58qCT0+vXr8O7du/Dly5c8KxzVapmIrly5EiRFe127dq2SpZcoo+qShYA7AUTkjpwCUwlIOG/fvg0SkHpCEpLEJEGVkCSURT0xiUey0uvGjRvh1q1b9JxKCCx17I0AIuoNJTsaikDXIbmh6tXXfpuKaJnQ+qoP+4GANwFE5E2c8pIJTF1ETYfmlg3xJYPlCxDIhAAiyiQQVKOewMePH8Ph4WE1P3R6eho+f/5cv/GE/1MnInpKEw76TJqGiGYS6JKb+f79+7C/v1+JSPND3759K7k5reteJ5w6QbUuiC9CwJkAInIGTnHpBCSfg4ODSkRatFDKarn0lrb7holoa2srbG9vh9u3b7Pqrh1KvjUSAUQ0EniKbU7AVs0d/76GSEKSmEhnBKynJAHdv38/SEi6ZkmCIkGgBAKIqIQozbyOP378qHpBr169Cnt7e+HNmzfV0u1fv37NnMzF5tMzusiDXDkEEFE5sZptTSUcXTMkAUlEEpJ6SRIU6YwAPaMzFvxVFgFEVFa8Zl1brZ47OjqqLmzV8JxWz5V0YatX8KxndO/evfDgwYNqzkiS0jJxEgRyJICIcowKdbqUgA3RSUK6y4J6SCXd6ufSRg3wofWMNjc3w+PHj6s5I8lJF86SIJAjAUSUY1So00ICtnhBK+hyFpHdI08C1d82p2VDjZZf2NgO/9SChd3d3Wol3draWrWSrsPu+CoEBiOAiAZDy46HImAHeA3L5Tw0Z8LUkOLXr1//zmlZz27oOS5ENNQvkP32TQAR9U2U/UHgD4FlItKFuRKp9Zgk2PM9p64g19fXq6E5u7bo+vXrXXfJ9yEwCAFENAhWdgqBUEnlvGhsKM6G5rTYQsOL1mOSuPTqq6eku3jv7OxUQ3O6tujmzZuEBQJZEkBEWYaFSs2BQNxjikXUdQhS4rl7924lIq2ek5hIEMiRACLKMSrUaRYETDR1Q3MmqraLMjQUp7staGhOq+c0VEeCQI4EEFGOUaFOEPhNwETU9oGA9pwjXU+k1XNazs31RPy0ciSAiHKMCnWCwG8C1mPSdVO6z17qI9LtOUcSkEQkIXE9ET+tHAkgohyjQp0gcI6AFjVIQpKR7iyhxQ0pidVzKbTYdgwCiGgM6pQJgQQCWuZtvSI9l0nPZ0pJrJ5LocW2YxBARGNQp0wIJBDQYgbNF7W9+7juqqDHQ2jRgl7KkyCQEwFElFM0qAsELiFg1x21vfs4IroEKh9lRQARZRUOKgOBegJtH5mOiOqZ8p88CCCiPOJALSCwlIAWKRweHlaLFk5PT6vHYCz90u8NEFETSmwzJgFENCZ9yoZAAoFPnz5VEtLquZOTk6B8k4SImlBimzEJIKIx6VM2BBIIIKIEWGxaFAFEVFS4qOycCSCiOUd/2m1HRNOOL62bEAFENKFg0pQLBBDRBRxkIJAvAUSUb2yoWTcCiKgbP74NATcCiMgNNQU5E0BEzsApDgJtCSCituT4Xu4EEFHuEaJ+EPhDABHxU5gqAUQ01cjSrskRQESTCykN+kMAEfFTgEAhBBBRIYGimskEEFEyMr4AgXEIIKJxuFPq8AQQ0fCMKQECvRBARL1gZCcZEkBEGQaFKkHgMgKI6DIqfDYFAohoClGkDbMggIhmEeZZNhIRzTLsNLpEAoioxKhR5yYEEFETSmwDgQwIIKIMgkAVBiGAiAbByk4h0D8BRNQ/U/aYBwFElEccqAUElhJAREsRsUGhBBBRoYGj2vMjgIjmF/O5tBgRzSXStLN4Aoio+BDSgBoCiKgGDB9DIDcCiCi3iFCfvgggor5Ish8IDEwAEQ0MmN2PRgARjYaegiGQRgARpfFi63IIIKJyYkVNZ04AEc38BzDh5iOiCQeXpk2LACKaVjxpzRkBRHTGgr8gkDUBRJR1eKhcBwKIqAM8vgoBTwKIyJM2ZXkSQESetCkLAh0IIKIO8Phq1gQQUdbhoXIQOCOAiM5Y8Ne0CCCiacWT1kyYACKacHBn3jRENPMfQJPm//jxI3z58iXoXenXr1/h58+f4cqVK2FlZeXv6+rVq012xzYtCSCiluD4WvYEEFH2IRq/gh8/fgxHR0dB70ompmvXroWNjY1w586d6rW6ujp+ZSdcA0Q04eDOvGmIaOY/gEXNV6/n+/fv4c2bN2F/fz+8f/++2jwW0ebmZtja2gq3b98OkpEEReqfwIcPH8LLly/D8fFxePfuXdVLbVLK2tpauH//ftje3q5eypMgkBMBRJRTNDKri4bj3r59G169enWhRxQPzd28ebOSkGS0s7MTbt26lVlLplGd169fh+fPn1ci0gmCThSaJETUhBLbjEkAEY1JP9OyrSekM3CdfesAuOgMXD0g9YTUM3r48GH1Ts+ov+BaPBQLiUjxSEk6MdAJgnpEOlnQiQMJAjkRQEQ5RSOTulhPSAe8k5OTICEtOgPXogUtVNABTvNF9+7do2fUYywtHhLRwcFBFY+U3a+vr4fHjx9XItLw6fXr11O+zrYQGJwAIhoccXkFtJ0Ut56RRLS7u1v1jCQoiYrUnkDbuSErUT3VJ0+eVCKip2pUeM+JACLKKRqZ1KWtiKxnpAOfRCQhceDrHtS2c0NWsuLw77//ViLixMCo8J4TAUSUUzQyqYuWaR8eHlbzQ6enp+Hz589JNdPwj+aKtn/PSWioTjIipROwRSEaknv27Fm1aCRlL5KOrvNSHJ4+fVrND6V8n20h4EUAEXmRLqgcLdPWcm0dADUs9O3bt6TaSzwSkA6AEpLEREonYMvkFYcXL15Uy+hT9qI46DovxeHRo0fEIQUe27oSQESuuMsoTPLRpLgOgFq+rcnylGRzRVqhpUlyDdXpzFxn6KTmBHQCoFgoDuev42q6B3qmTUmx3dgEENHYEciw/K6rtGyuSAdCLRvWHAVDdOmB1pCo5ockovN3tmi6J50IaEhOPSJOBJpSY7sxCCCiMahnXqYNCelC1r29vWpISNeyaM4iJdnQkET04MGDamiIyfLmBNvO1TE31JwxW+ZBABHlEYesamGT5Lq1j0QkIamXJEGlJDsgamhOQ3Q6Q5ecuAVQM4pt5+rsBIC5oWac2Wp8Aoho/BhkWwO72amGhzRXoaGiRRe21jWEuYo6Mpd/bj1SnQhork7vKScC3Enhcq58mi8BRJRvbEavmR0QJSHJSAfERbf6qauwztBZRVdH57+f2wmAeqJaLKITgJShUe6k8F+mfJI3AUSUd3yyqJ0tXrCbn0pMKQdGVtE1C6OJv21PyErhTgpGgvdSCCCiUiI1Yj3tpps6QGoZsXpHKUNFrKJrFryuPSErhTspGAneSyGAiEqJVAb1VE+oy/VFTKJfDKItClFPSHNvGoZrMydke7XFIVqkwJ0UjArvJRBARCVEKZM62hCdrmvRAVNiSkkcKC/SsqE49YQ09yYRtZkTsr0ieiPBe2kEEFFpERuxvnbg1NCchug0VNdmFd3ch46MoxYh6AazErpEJCGlDHnaT4GhTyPBe6kEEFGpkRuh3jaUpAOnboqqxQttVtHNfTLd5oIkcolI8pHQJaiURSD2E2AxiJHgvVQCiKjUyI1Ybxuia7uKbm7XFZnAJZo+5oIs9NYT4oGERoT3UgkgolIjN2K9u66im9t1RTYU19dckIXeekLqYfKIdqPCe4kEEFGJUcukzm1X0c3lAGoC6msuyMJOT8hI8D4VAohoKpEcoR02RJe6im4uB9K+54IsxHMRubWX9+kTQETTj/FgLbQzfomozYPbpnZAHWouyAI4F4Fbe3mfDwFENJ9Y995SO/BKRG0eZT21A6uJue+5IAvc1MRt7eIdAoiI30BnArqu6Pnz50FCanNdkR1gdX3R7u5u9URXXfwqUeWQTLgSzaJl1rGIJKQ21wXFbZ6asOP2kYcAIuI30JmAFi28fPmyElGb64rsQKvVXxKRhKSVdRJUDqmpYJoKK7VNJmpWx6WSY/tSCCCiUiKVcT1t0ULb64qsaWNfX1QnEvWC1EYbcuurp2Ptrns3QXOdUB0hPp8KAUQ0lUiO2I6u1xVZ1ce+vqiu52PDjcuG5qwdfb3TE+qLJPvJnQAiyj1CBdVPPYWjo6Pq1j9tbt5pB149UlyPFtdQ1MrKStB8UZtU18PR55elOhHpc49kPSBxULsl5rW1tYrDzs5O0JNXSRCYIgFENMWojtQmO5C3fbCbHYg1RKcDr+aK9GRXHZDbJKtP0yG1VHG1qdOi75iIJZyNjY0gDhKRhuZymjNb1Ab+B4E2BBBRG2p8ZyGBtndcsJ3qoKsDsSSklw7M+sx6RxLW+RQLREOFShpS6+Pu1ufLGuJvE7DNBanNar+1W4IiQWDKBBDRlKM7Utts8YKWc3d5bpHEo9f6+nrVQ7LeUXxgjns+Kl/JRKS8/tZ2be5uPTRG6wnZqji1U+3W5zktYx+aA/ufLwFENN/YD9ZyE4NW0e3t7VXPLeoiAPUMNFSXKiKrh95zStYDkmgkHPX2mAvKKULUxZsAIvImPoPybKhMc0USkYSkXklbIViPQQfty3oIVp72byvchNk+13tOydrDXFBOUaEuYxJARGPSn3jZXeeKpobHekLMBU0tsrSnKwFE1JUg368l0HWuqHbHhf7DekLMBRUaQKo9GAFENBhadmxzNG2Xc5dK0Ho+Ngekdw0p2nyQ5rq4LqjU6FLvIQggoiGoss+KgM3R6MFwusDVbgGk63qmnKznY3NAtgzb5rhMSNqOBAEIhICI+BUMTsB6Rn2tohu8wjUF1PV09Pn5VCcixHOeEn9D4IwAIjpjwV8DEbCeUV+r6Aaq5tLdNhVMU2EtLZANIDATAohoJoHOoZl2Lzo9v0gr6jRkd365dQ51VB1MJNbTOT+/o+t9dOsd7nyQS7SoxxQIIKIpRLGQNtgQnSQkGamH1Ob5RUM313o+NpRmtxyye7/Z7Yb0/8uuaxq6fuwfAlMjgIimFtEC2mPLum3xgsTU5c4Ly5pc18OpE0mdiGzRgQlqWbn8HwIQaEYAETXjxFY9EpB0NCSnHtH+/n7VO+py54VlVUsVS6q4lpXP/yEAgcUEENFiPvx3QAJDzRmZSCQgWyqtuR39rWRDbfRwBgwuu4ZAAgFElACLTfslMNSckfWA7Doem9sxEdniA23HHE+/MWVvEGhDABG1ocZ3eiVgc0a66LWPxQuxiOj59BoudgaB3gkgot6RssNUAjZnpHmjPpZzx0Nz9HxSI8L2EPAlgIh8eVMaBCAAAQhEBBBRBIQsBCAAAQj4EkBEvrwpDQIQgAAEIgKIKAJCFgIQgAAEfAkgIl/elAYBCEAAAhEBRBQBIQsBCEAAAr4EEJEvb0qDAAQgAIGIACKKgJCFAAQgAAFfAojIlzelQQACEIBARAARRUDIQgACEICALwFE5Mub0iAAAQhAICKAiCIgZCEAAQhAwJcAIvLlTWkQgAAEIBARQEQRELIQgAAEIOBLABH58qY0CEAAAhCICCCiCAhZCEAAAhDwJYCIfHlTGgQgAAEIRAQQUQSELAQgAAEI+BJARL68KQ0CEIAABCICiCgCQhYCEIAABHwJICJf3pQGAQhAAAIRAUQUASELAQhAAAK+BBCRL29KgwAEIACBiAAiioCQhQAEIAABXwKIyJc3pUEAAhCAQEQAEUVAyEIAAhCAgC8BROTLm9IgAAEIQCAigIgiIGQhAAEIQMCXACLy5U1pEIAABCAQEUBEERCyEIAABCDgSwAR+fKmNAhAAAIQiAggoggIWQhAAAIQ8CWAiHx5UxoEIAABCEQEEFEEhCwEIAABCPgSQES+vCkNAhCAAAQiAogoAkIWAhCAAAR8CSAiX96UBgEIQAACEQFEFAEhCwEIQAACvgQQkS9vSoMABCAAgYgAIoqAkIUABCAAAV8CiMiXN6VBAAIQgEBEABFFQMhCAAIQgIAvAUTky5vSIAABCEAgIoCIIiBkIQABCEDAlwAi8uVNaRCAAAQgEBFARBEQshCAAAQg4EsAEfnypjQIQAACEIgIIKIICFkIQAACEPAlgIh8eVMaBCAAAQhEBBBRBIQsBCAAAQj4EkBEvrwpDQIQgAAEIgKIKAJCFgIQgAAEfAkgIl/elAYBCEAAAhEBRBQBIQsBCEAAAr4EEJEvb0qDAAQgAIGIACKKgJCFAAQgAAFfAojIlzelQQACEIBARAARRUDIQgACEICALwFE5Mub0iAAAQhAICKAiCIgZCEAAQhAwJcAIvLlTWkQgAAEIBARQEQRELIQgAAEIOBLABH58qY0CEAAAhCICCCiCAhZCEAAAhDwJYCIfHlTGgQgAAEIRAQQUQSELAQgAAEI+BJARL68KQ0CEIAABCICiCgCQhYCEIAABHwJICJf3pQGAQhAAAIRAUQUASELAQhAAAK+BBCRL29KgwAEIACBiAAiioCQhQAEIAABXwKIyJc3pUEAAhCAQEQAEUVAyEIAAhCAgC8BROTLm9IgAAEIQCAigIgiIGQhAAEIQMCXACLy5U1pEIAABCAQEUBEERCyEIAABCDgSwAR+fKmNAhAAAIQiAggoggIWQhAAAIQ8CXwf8vqHQoEQKsmAAAAAElFTkSuQmCC;imageBorder=default;" vertex="1" parent="1">
          <mxGeometry x="8" y="266.6" width="117" height="105.8" as="geometry" />
        </mxCell>
        <mxCell id="l8auqSjwiv6IMwPf-op2-79" value="" style="rounded=0;whiteSpace=wrap;html=1;" vertex="1" parent="1">
          <mxGeometry x="877" y="294" width="13" height="9" as="geometry" />
        </mxCell>
        <mxCell id="l8auqSjwiv6IMwPf-op2-80" value="" style="rounded=0;whiteSpace=wrap;html=1;" vertex="1" parent="1">
          <mxGeometry x="877" y="303" width="13" height="9" as="geometry" />
        </mxCell>
        <mxCell id="l8auqSjwiv6IMwPf-op2-81" value="3" style="rounded=0;whiteSpace=wrap;html=1;fillColor=#d5e8d4;strokeColor=#82b366;fontSize=6;" vertex="1" parent="1">
          <mxGeometry x="877" y="312" width="13" height="9" as="geometry" />
        </mxCell>
        <mxCell id="l8auqSjwiv6IMwPf-op2-82" value="" style="rounded=0;whiteSpace=wrap;html=1;" vertex="1" parent="1">
          <mxGeometry x="877" y="321" width="13" height="9" as="geometry" />
        </mxCell>
        <mxCell id="l8auqSjwiv6IMwPf-op2-83" value="" style="rounded=0;whiteSpace=wrap;html=1;" vertex="1" parent="1">
          <mxGeometry x="877" y="330" width="13" height="9" as="geometry" />
        </mxCell>
        <mxCell id="l8auqSjwiv6IMwPf-op2-84" value="" style="rounded=0;whiteSpace=wrap;html=1;" vertex="1" parent="1">
          <mxGeometry x="877" y="339" width="13" height="9" as="geometry" />
        </mxCell>
        <mxCell id="l8auqSjwiv6IMwPf-op2-85" value="" style="rounded=0;whiteSpace=wrap;html=1;" vertex="1" parent="1">
          <mxGeometry x="877" y="348" width="13" height="9" as="geometry" />
        </mxCell>
        <mxCell id="l8auqSjwiv6IMwPf-op2-86" value="" style="rounded=0;whiteSpace=wrap;html=1;" vertex="1" parent="1">
          <mxGeometry x="877" y="357" width="13" height="9" as="geometry" />
        </mxCell>
        <mxCell id="l8auqSjwiv6IMwPf-op2-87" value="" style="rounded=0;whiteSpace=wrap;html=1;" vertex="1" parent="1">
          <mxGeometry x="877" y="366" width="13" height="9" as="geometry" />
        </mxCell>
        <mxCell id="l8auqSjwiv6IMwPf-op2-88" value="Input" style="text;html=1;align=center;verticalAlign=middle;whiteSpace=wrap;rounded=0;strokeColor=default;" vertex="1" parent="1">
          <mxGeometry x="17.25" y="559" width="98.5" height="30" as="geometry" />
        </mxCell>
        <mxCell id="l8auqSjwiv6IMwPf-op2-90" value="256" style="text;html=1;align=center;verticalAlign=middle;whiteSpace=wrap;rounded=0;" vertex="1" parent="1">
          <mxGeometry x="63" y="681" width="60" height="30" as="geometry" />
        </mxCell>
        <mxCell id="l8auqSjwiv6IMwPf-op2-91" value="" style="rounded=0;whiteSpace=wrap;html=1;" vertex="1" parent="1">
          <mxGeometry x="86.5" y="713.5" width="13" height="291" as="geometry" />
        </mxCell>
        <mxCell id="l8auqSjwiv6IMwPf-op2-92" value="" style="rounded=0;whiteSpace=wrap;html=1;" vertex="1" parent="1">
          <mxGeometry x="159.5" y="731.5" width="13" height="255" as="geometry" />
        </mxCell>
        <mxCell id="l8auqSjwiv6IMwPf-op2-93" value="120" style="text;html=1;align=center;verticalAlign=middle;whiteSpace=wrap;rounded=0;" vertex="1" parent="1">
          <mxGeometry x="136" y="692" width="60" height="30" as="geometry" />
        </mxCell>
        <mxCell id="l8auqSjwiv6IMwPf-op2-94" value="" style="endArrow=classic;html=1;rounded=0;" edge="1" parent="1">
          <mxGeometry width="50" height="50" relative="1" as="geometry">
            <mxPoint x="106.5" y="751" as="sourcePoint" />
            <mxPoint x="152.5" y="771" as="targetPoint" />
          </mxGeometry>
        </mxCell>
        <mxCell id="l8auqSjwiv6IMwPf-op2-95" value="" style="endArrow=classic;html=1;rounded=0;" edge="1" parent="1">
          <mxGeometry width="50" height="50" relative="1" as="geometry">
            <mxPoint x="106.5" y="760" as="sourcePoint" />
            <mxPoint x="149.5" y="945" as="targetPoint" />
          </mxGeometry>
        </mxCell>
        <mxCell id="l8auqSjwiv6IMwPf-op2-96" value="" style="endArrow=classic;html=1;rounded=0;" edge="1" parent="1">
          <mxGeometry width="50" height="50" relative="1" as="geometry">
            <mxPoint x="113.5" y="991" as="sourcePoint" />
            <mxPoint x="149.5" y="953" as="targetPoint" />
          </mxGeometry>
        </mxCell>
        <mxCell id="l8auqSjwiv6IMwPf-op2-97" value="" style="endArrow=classic;html=1;rounded=0;" edge="1" parent="1">
          <mxGeometry width="50" height="50" relative="1" as="geometry">
            <mxPoint x="110.5" y="982" as="sourcePoint" />
            <mxPoint x="151.5" y="775" as="targetPoint" />
          </mxGeometry>
        </mxCell>
        <mxCell id="l8auqSjwiv6IMwPf-op2-98" value="&amp;nbsp;FC1" style="text;html=1;align=center;verticalAlign=middle;whiteSpace=wrap;rounded=0;" vertex="1" parent="1">
          <mxGeometry x="145.68999999999994" y="1035" width="40.62" height="30" as="geometry" />
        </mxCell>
        <mxCell id="l8auqSjwiv6IMwPf-op2-99" value="Input" style="text;html=1;align=center;verticalAlign=middle;whiteSpace=wrap;rounded=0;" vertex="1" parent="1">
          <mxGeometry x="72.68999999999994" y="1035" width="40.62" height="30" as="geometry" />
        </mxCell>
        <mxCell id="l8auqSjwiv6IMwPf-op2-100" value="" style="rounded=0;whiteSpace=wrap;html=1;" vertex="1" parent="1">
          <mxGeometry x="305.5" y="801.5" width="97" height="115" as="geometry" />
        </mxCell>
        <mxCell id="l8auqSjwiv6IMwPf-op2-101" value="" style="shape=flexArrow;endArrow=classic;startArrow=classic;html=1;rounded=0;" edge="1" parent="1">
          <mxGeometry width="100" height="100" relative="1" as="geometry">
            <mxPoint x="184" y="859" as="sourcePoint" />
            <mxPoint x="295" y="859" as="targetPoint" />
          </mxGeometry>
        </mxCell>
        <mxCell id="l8auqSjwiv6IMwPf-op2-102" value="" style="endArrow=none;html=1;rounded=0;exitX=0.25;exitY=1;exitDx=0;exitDy=0;entryX=0.25;entryY=0;entryDx=0;entryDy=0;" edge="1" parent="1" source="l8auqSjwiv6IMwPf-op2-100" target="l8auqSjwiv6IMwPf-op2-100">
          <mxGeometry width="50" height="50" relative="1" as="geometry">
            <mxPoint x="403" y="847" as="sourcePoint" />
            <mxPoint x="453" y="797" as="targetPoint" />
          </mxGeometry>
        </mxCell>
        <mxCell id="l8auqSjwiv6IMwPf-op2-103" value="" style="endArrow=none;html=1;rounded=0;exitX=0.5;exitY=1;exitDx=0;exitDy=0;entryX=0.5;entryY=0;entryDx=0;entryDy=0;" edge="1" parent="1" source="l8auqSjwiv6IMwPf-op2-100" target="l8auqSjwiv6IMwPf-op2-100">
          <mxGeometry width="50" height="50" relative="1" as="geometry">
            <mxPoint x="340" y="927" as="sourcePoint" />
            <mxPoint x="340" y="812" as="targetPoint" />
          </mxGeometry>
        </mxCell>
        <mxCell id="l8auqSjwiv6IMwPf-op2-104" value="" style="endArrow=none;html=1;rounded=0;exitX=0.75;exitY=1;exitDx=0;exitDy=0;entryX=0.75;entryY=0;entryDx=0;entryDy=0;" edge="1" parent="1" source="l8auqSjwiv6IMwPf-op2-100" target="l8auqSjwiv6IMwPf-op2-100">
          <mxGeometry width="50" height="50" relative="1" as="geometry">
            <mxPoint x="350" y="937" as="sourcePoint" />
            <mxPoint x="350" y="822" as="targetPoint" />
          </mxGeometry>
        </mxCell>
        <mxCell id="l8auqSjwiv6IMwPf-op2-105" value="" style="endArrow=none;html=1;rounded=0;exitX=1;exitY=0.25;exitDx=0;exitDy=0;entryX=0;entryY=0.25;entryDx=0;entryDy=0;" edge="1" parent="1" source="l8auqSjwiv6IMwPf-op2-100" target="l8auqSjwiv6IMwPf-op2-100">
          <mxGeometry width="50" height="50" relative="1" as="geometry">
            <mxPoint x="360" y="947" as="sourcePoint" />
            <mxPoint x="360" y="832" as="targetPoint" />
          </mxGeometry>
        </mxCell>
        <mxCell id="l8auqSjwiv6IMwPf-op2-106" value="" style="endArrow=none;html=1;rounded=0;exitX=1;exitY=0.5;exitDx=0;exitDy=0;entryX=0;entryY=0.5;entryDx=0;entryDy=0;" edge="1" parent="1" source="l8auqSjwiv6IMwPf-op2-100" target="l8auqSjwiv6IMwPf-op2-100">
          <mxGeometry width="50" height="50" relative="1" as="geometry">
            <mxPoint x="370" y="957" as="sourcePoint" />
            <mxPoint x="370" y="842" as="targetPoint" />
          </mxGeometry>
        </mxCell>
        <mxCell id="l8auqSjwiv6IMwPf-op2-107" value="" style="endArrow=none;html=1;rounded=0;exitX=1;exitY=0.75;exitDx=0;exitDy=0;entryX=0;entryY=0.75;entryDx=0;entryDy=0;" edge="1" parent="1" source="l8auqSjwiv6IMwPf-op2-100" target="l8auqSjwiv6IMwPf-op2-100">
          <mxGeometry width="50" height="50" relative="1" as="geometry">
            <mxPoint x="380" y="967" as="sourcePoint" />
            <mxPoint x="380" y="852" as="targetPoint" />
          </mxGeometry>
        </mxCell>
        <mxCell id="l8auqSjwiv6IMwPf-op2-108" value="Weights" style="text;html=1;align=center;verticalAlign=middle;whiteSpace=wrap;rounded=0;" vertex="1" parent="1">
          <mxGeometry x="331.35" y="928" width="45.31" height="30" as="geometry" />
        </mxCell>
        <mxCell id="l8auqSjwiv6IMwPf-op2-109" value="120*256" style="text;html=1;align=center;verticalAlign=middle;whiteSpace=wrap;rounded=0;" vertex="1" parent="1">
          <mxGeometry x="330" y="756" width="49.31" height="30" as="geometry" />
        </mxCell>
        <mxCell id="l8auqSjwiv6IMwPf-op2-111" value="" style="rounded=0;whiteSpace=wrap;html=1;" vertex="1" parent="1">
          <mxGeometry x="437" y="801.5" width="25" height="117.5" as="geometry" />
        </mxCell>
        <mxCell id="l8auqSjwiv6IMwPf-op2-112" value="120*1" style="text;html=1;align=center;verticalAlign=middle;whiteSpace=wrap;rounded=0;" vertex="1" parent="1">
          <mxGeometry x="426" y="756" width="49.31" height="30" as="geometry" />
        </mxCell>
        <mxCell id="l8auqSjwiv6IMwPf-op2-113" value="Bias" style="text;html=1;align=center;verticalAlign=middle;whiteSpace=wrap;rounded=0;" vertex="1" parent="1">
          <mxGeometry x="426.69" y="928" width="45.31" height="30" as="geometry" />
        </mxCell>
        <mxCell id="l8auqSjwiv6IMwPf-op2-114" value="" style="shape=flexArrow;endArrow=classic;html=1;rounded=0;" edge="1" parent="1">
          <mxGeometry width="50" height="50" relative="1" as="geometry">
            <mxPoint x="486" y="858.5" as="sourcePoint" />
            <mxPoint x="547" y="858.5" as="targetPoint" />
          </mxGeometry>
        </mxCell>
        <mxCell id="l8auqSjwiv6IMwPf-op2-115" value="&lt;h1 style=&quot;margin-top: 0px;&quot;&gt;Parameter Count&lt;/h1&gt;&lt;p&gt;Weights&lt;span style=&quot;white-space: pre;&quot;&gt;&#x9;&lt;/span&gt;= 120 * 256&lt;span style=&quot;white-space: pre;&quot;&gt;&#x9;&lt;/span&gt;= 30720&lt;/p&gt;&lt;p&gt;Bias&lt;span style=&quot;white-space: pre;&quot;&gt;&#x9;&lt;/span&gt;&lt;span style=&quot;white-space: pre;&quot;&gt;&#x9;&lt;/span&gt;= 120&lt;span style=&quot;white-space: pre;&quot;&gt;&#x9;&lt;/span&gt;&lt;span style=&quot;white-space: pre;&quot;&gt;&#x9;&lt;/span&gt;= 120&lt;/p&gt;&lt;p&gt;Total&lt;span style=&quot;white-space: pre;&quot;&gt;&#x9;&lt;/span&gt;&lt;span style=&quot;white-space: pre;&quot;&gt;&#x9;&lt;/span&gt;&lt;span style=&quot;white-space: pre;&quot;&gt;&#x9;&lt;/span&gt;&lt;span style=&quot;white-space: pre;&quot;&gt;&#x9;&lt;/span&gt;= 30840&lt;/p&gt;" style="text;html=1;whiteSpace=wrap;overflow=hidden;rounded=0;" vertex="1" parent="1">
          <mxGeometry x="578.81" y="799" width="240" height="120" as="geometry" />
        </mxCell>
        <mxCell id="l8auqSjwiv6IMwPf-op2-116" value="256" style="text;html=1;align=center;verticalAlign=middle;whiteSpace=wrap;rounded=0;" vertex="1" parent="1">
          <mxGeometry x="63" y="1115" width="60" height="30" as="geometry" />
        </mxCell>
        <mxCell id="l8auqSjwiv6IMwPf-op2-117" value="" style="rounded=0;whiteSpace=wrap;html=1;" vertex="1" parent="1">
          <mxGeometry x="86.5" y="1147.5" width="13" height="291" as="geometry" />
        </mxCell>
        <mxCell id="l8auqSjwiv6IMwPf-op2-118" value="" style="rounded=0;whiteSpace=wrap;html=1;" vertex="1" parent="1">
          <mxGeometry x="159.5" y="1165.5" width="13" height="255" as="geometry" />
        </mxCell>
        <mxCell id="l8auqSjwiv6IMwPf-op2-119" value="120" style="text;html=1;align=center;verticalAlign=middle;whiteSpace=wrap;rounded=0;" vertex="1" parent="1">
          <mxGeometry x="136" y="1126" width="60" height="30" as="geometry" />
        </mxCell>
        <mxCell id="l8auqSjwiv6IMwPf-op2-120" value="" style="endArrow=classic;html=1;rounded=0;" edge="1" parent="1">
          <mxGeometry width="50" height="50" relative="1" as="geometry">
            <mxPoint x="106.5" y="1185" as="sourcePoint" />
            <mxPoint x="152.5" y="1205" as="targetPoint" />
          </mxGeometry>
        </mxCell>
        <mxCell id="l8auqSjwiv6IMwPf-op2-121" value="" style="endArrow=classic;html=1;rounded=0;" edge="1" parent="1">
          <mxGeometry width="50" height="50" relative="1" as="geometry">
            <mxPoint x="106.5" y="1194" as="sourcePoint" />
            <mxPoint x="149.5" y="1379" as="targetPoint" />
          </mxGeometry>
        </mxCell>
        <mxCell id="l8auqSjwiv6IMwPf-op2-122" value="" style="endArrow=classic;html=1;rounded=0;" edge="1" parent="1">
          <mxGeometry width="50" height="50" relative="1" as="geometry">
            <mxPoint x="113.5" y="1425" as="sourcePoint" />
            <mxPoint x="149.5" y="1387" as="targetPoint" />
          </mxGeometry>
        </mxCell>
        <mxCell id="l8auqSjwiv6IMwPf-op2-123" value="" style="endArrow=classic;html=1;rounded=0;" edge="1" parent="1">
          <mxGeometry width="50" height="50" relative="1" as="geometry">
            <mxPoint x="110.5" y="1416" as="sourcePoint" />
            <mxPoint x="151.5" y="1209" as="targetPoint" />
          </mxGeometry>
        </mxCell>
        <mxCell id="l8auqSjwiv6IMwPf-op2-124" value="&amp;nbsp;FC1" style="text;html=1;align=center;verticalAlign=middle;whiteSpace=wrap;rounded=0;" vertex="1" parent="1">
          <mxGeometry x="145.68999999999994" y="1469" width="40.62" height="30" as="geometry" />
        </mxCell>
        <mxCell id="l8auqSjwiv6IMwPf-op2-125" value="Input" style="text;html=1;align=center;verticalAlign=middle;whiteSpace=wrap;rounded=0;" vertex="1" parent="1">
          <mxGeometry x="72.68999999999994" y="1469" width="40.62" height="30" as="geometry" />
        </mxCell>
        <mxCell id="l8auqSjwiv6IMwPf-op2-126" value="" style="rounded=0;whiteSpace=wrap;html=1;" vertex="1" parent="1">
          <mxGeometry x="305.5" y="1140.5" width="97" height="115" as="geometry" />
        </mxCell>
        <mxCell id="l8auqSjwiv6IMwPf-op2-127" value="" style="shape=flexArrow;endArrow=classic;startArrow=classic;html=1;rounded=0;" edge="1" parent="1">
          <mxGeometry width="100" height="100" relative="1" as="geometry">
            <mxPoint x="186.31" y="1291" as="sourcePoint" />
            <mxPoint x="297.31" y="1291" as="targetPoint" />
          </mxGeometry>
        </mxCell>
        <mxCell id="l8auqSjwiv6IMwPf-op2-134" value="Weights" style="text;html=1;align=center;verticalAlign=middle;whiteSpace=wrap;rounded=0;" vertex="1" parent="1">
          <mxGeometry x="331.35" y="1267" width="45.31" height="30" as="geometry" />
        </mxCell>
        <mxCell id="l8auqSjwiv6IMwPf-op2-135" value="120*256" style="text;html=1;align=center;verticalAlign=middle;whiteSpace=wrap;rounded=0;" vertex="1" parent="1">
          <mxGeometry x="330" y="1105" width="49.31" height="30" as="geometry" />
        </mxCell>
        <mxCell id="l8auqSjwiv6IMwPf-op2-136" value="" style="rounded=0;whiteSpace=wrap;html=1;" vertex="1" parent="1">
          <mxGeometry x="389.5" y="1351.5" width="25" height="117.5" as="geometry" />
        </mxCell>
        <mxCell id="l8auqSjwiv6IMwPf-op2-137" value="120*1" style="text;html=1;align=center;verticalAlign=middle;whiteSpace=wrap;rounded=0;" vertex="1" parent="1">
          <mxGeometry x="374.66" y="1325" width="49.31" height="30" as="geometry" />
        </mxCell>
        <mxCell id="l8auqSjwiv6IMwPf-op2-138" value="Bias" style="text;html=1;align=center;verticalAlign=middle;whiteSpace=wrap;rounded=0;" vertex="1" parent="1">
          <mxGeometry x="376.66" y="1477" width="45.31" height="30" as="geometry" />
        </mxCell>
        <mxCell id="l8auqSjwiv6IMwPf-op2-139" value="" style="shape=flexArrow;endArrow=classic;html=1;rounded=0;" edge="1" parent="1">
          <mxGeometry width="50" height="50" relative="1" as="geometry">
            <mxPoint x="594" y="1290.5" as="sourcePoint" />
            <mxPoint x="655" y="1290.5" as="targetPoint" />
          </mxGeometry>
        </mxCell>
        <mxCell id="l8auqSjwiv6IMwPf-op2-141" value="" style="rounded=0;whiteSpace=wrap;html=1;fillColor=#d5e8d4;strokeColor=#82b366;" vertex="1" parent="1">
          <mxGeometry x="435.84" y="1139.25" width="25" height="117.5" as="geometry" />
        </mxCell>
        <mxCell id="l8auqSjwiv6IMwPf-op2-142" value="" style="shape=waypoint;sketch=0;fillStyle=solid;size=6;pointerEvents=1;points=[];fillColor=none;resizable=0;rotatable=0;perimeter=centerPerimeter;snapToPoint=1;" vertex="1" parent="1">
          <mxGeometry x="412.69" y="1190" width="20" height="20" as="geometry" />
        </mxCell>
        <mxCell id="l8auqSjwiv6IMwPf-op2-143" value="" style="endArrow=none;html=1;rounded=0;" edge="1" parent="1">
          <mxGeometry width="50" height="50" relative="1" as="geometry">
            <mxPoint x="402.5" y="1319" as="sourcePoint" />
            <mxPoint x="402.5" y="1300" as="targetPoint" />
          </mxGeometry>
        </mxCell>
        <mxCell id="l8auqSjwiv6IMwPf-op2-144" value="" style="endArrow=none;html=1;rounded=0;" edge="1" parent="1">
          <mxGeometry width="50" height="50" relative="1" as="geometry">
            <mxPoint x="412.69" y="1309" as="sourcePoint" />
            <mxPoint x="393.69" y="1309" as="targetPoint" />
          </mxGeometry>
        </mxCell>
        <mxCell id="l8auqSjwiv6IMwPf-op2-145" value="256*1" style="text;html=1;align=center;verticalAlign=middle;whiteSpace=wrap;rounded=0;" vertex="1" parent="1">
          <mxGeometry x="424.69" y="1105" width="49.31" height="30" as="geometry" />
        </mxCell>
        <mxCell id="l8auqSjwiv6IMwPf-op2-146" value="Input" style="text;html=1;align=center;verticalAlign=middle;whiteSpace=wrap;rounded=0;" vertex="1" parent="1">
          <mxGeometry x="428.03999999999996" y="1267" width="40.62" height="30" as="geometry" />
        </mxCell>
        <mxCell id="l8auqSjwiv6IMwPf-op2-147" value="28 * 28" style="whiteSpace=wrap;html=1;aspect=fixed;" vertex="1" parent="1">
          <mxGeometry x="-58" y="1690" width="138" height="138" as="geometry" />
        </mxCell>
        <mxCell id="l8auqSjwiv6IMwPf-op2-148" value="" style="whiteSpace=wrap;html=1;aspect=fixed;" vertex="1" parent="1">
          <mxGeometry x="156" y="1720.5" width="47" height="47" as="geometry" />
        </mxCell>
        <mxCell id="l8auqSjwiv6IMwPf-op2-149" value="" style="whiteSpace=wrap;html=1;aspect=fixed;" vertex="1" parent="1">
          <mxGeometry x="166" y="1730.5" width="47" height="47" as="geometry" />
        </mxCell>
        <mxCell id="l8auqSjwiv6IMwPf-op2-150" value="" style="whiteSpace=wrap;html=1;aspect=fixed;" vertex="1" parent="1">
          <mxGeometry x="176" y="1740.5" width="47" height="47" as="geometry" />
        </mxCell>
        <mxCell id="l8auqSjwiv6IMwPf-op2-151" value="" style="whiteSpace=wrap;html=1;aspect=fixed;" vertex="1" parent="1">
          <mxGeometry x="186" y="1750.5" width="47" height="47" as="geometry" />
        </mxCell>
        <mxCell id="l8auqSjwiv6IMwPf-op2-152" value="" style="whiteSpace=wrap;html=1;aspect=fixed;" vertex="1" parent="1">
          <mxGeometry x="196" y="1760.5" width="47" height="47" as="geometry" />
        </mxCell>
        <mxCell id="l8auqSjwiv6IMwPf-op2-153" value="5 * 5" style="whiteSpace=wrap;html=1;aspect=fixed;" vertex="1" parent="1">
          <mxGeometry x="205.75" y="1771" width="47" height="47" as="geometry" />
        </mxCell>
        <mxCell id="l8auqSjwiv6IMwPf-op2-155" value="" style="endArrow=classic;startArrow=classic;html=1;rounded=0;" edge="1" parent="1">
          <mxGeometry width="50" height="50" relative="1" as="geometry">
            <mxPoint x="192" y="1822" as="sourcePoint" />
            <mxPoint x="136" y="1769" as="targetPoint" />
          </mxGeometry>
        </mxCell>
        <mxCell id="l8auqSjwiv6IMwPf-op2-156" value="6 filters" style="text;html=1;align=center;verticalAlign=middle;whiteSpace=wrap;rounded=0;" vertex="1" parent="1">
          <mxGeometry x="112.5" y="1788" width="60" height="30" as="geometry" />
        </mxCell>
        <mxCell id="l8auqSjwiv6IMwPf-op2-157" value="Input" style="text;html=1;align=center;verticalAlign=middle;whiteSpace=wrap;rounded=0;" vertex="1" parent="1">
          <mxGeometry x="-19" y="1859" width="60" height="30" as="geometry" />
        </mxCell>
        <mxCell id="l8auqSjwiv6IMwPf-op2-158" value="C1" style="text;html=1;align=center;verticalAlign=middle;whiteSpace=wrap;rounded=0;" vertex="1" parent="1">
          <mxGeometry x="166" y="1859" width="60" height="30" as="geometry" />
        </mxCell>
        <mxCell id="l8auqSjwiv6IMwPf-op2-159" value="&lt;h1 style=&quot;margin-top: 0px;&quot;&gt;Parameter Count&lt;/h1&gt;&lt;p&gt;Weights&lt;span style=&quot;white-space: pre;&quot;&gt;&#x9;&lt;/span&gt;= 6 * 5 * 5&lt;span style=&quot;white-space: pre;&quot;&gt;&#x9;&lt;/span&gt;= 150&lt;/p&gt;&lt;p&gt;Bias&lt;span style=&quot;white-space: pre;&quot;&gt;&#x9;&lt;/span&gt;&lt;span style=&quot;white-space: pre;&quot;&gt;&#x9;&lt;/span&gt;= 6&lt;span style=&quot;white-space: pre;&quot;&gt;&#x9;&lt;/span&gt;&lt;span style=&quot;white-space: pre;&quot;&gt;&#x9;&lt;span style=&quot;white-space: pre;&quot;&gt;&#x9;&lt;/span&gt;&lt;/span&gt;= 6&lt;/p&gt;&lt;p&gt;Total&lt;span style=&quot;white-space: pre;&quot;&gt;&#x9;&lt;/span&gt;&lt;span style=&quot;white-space: pre;&quot;&gt;&#x9;&lt;/span&gt;&lt;span style=&quot;white-space: pre;&quot;&gt;&#x9;&lt;/span&gt;&lt;span style=&quot;white-space: pre;&quot;&gt;&#x9;&lt;/span&gt;= 156&lt;/p&gt;" style="text;html=1;whiteSpace=wrap;overflow=hidden;rounded=0;" vertex="1" parent="1">
          <mxGeometry x="390.99999999999994" y="1704" width="240" height="120" as="geometry" />
        </mxCell>
        <mxCell id="l8auqSjwiv6IMwPf-op2-160" value="1 * 28 * 28" style="whiteSpace=wrap;html=1;aspect=fixed;" vertex="1" parent="1">
          <mxGeometry x="-58" y="2012" width="138" height="138" as="geometry" />
        </mxCell>
        <mxCell id="l8auqSjwiv6IMwPf-op2-166" value="5 * 5" style="whiteSpace=wrap;html=1;aspect=fixed;fillColor=#d5e8d4;strokeColor=#82b366;" vertex="1" parent="1">
          <mxGeometry x="149" y="2057.5" width="47" height="47" as="geometry" />
        </mxCell>
        <mxCell id="l8auqSjwiv6IMwPf-op2-169" value="Input" style="text;html=1;align=center;verticalAlign=middle;whiteSpace=wrap;rounded=0;" vertex="1" parent="1">
          <mxGeometry x="-19" y="2177" width="60" height="30" as="geometry" />
        </mxCell>
        <mxCell id="l8auqSjwiv6IMwPf-op2-170" value="1 Filter" style="text;html=1;align=center;verticalAlign=middle;whiteSpace=wrap;rounded=0;" vertex="1" parent="1">
          <mxGeometry x="143" y="2120" width="60" height="30" as="geometry" />
        </mxCell>
        <mxCell id="l8auqSjwiv6IMwPf-op2-171" value="&lt;h1 style=&quot;margin-top: 0px;&quot;&gt;&lt;font style=&quot;font-size: 20px;&quot;&gt;Flops Per Output Pixel&lt;/font&gt;&lt;/h1&gt;&lt;p&gt;&lt;span style=&quot;background-color: initial;&quot;&gt;Multiplication&lt;/span&gt;&lt;span style=&quot;background-color: initial; white-space: pre;&quot;&gt;&#x9;&lt;/span&gt;&lt;span style=&quot;background-color: initial;&quot;&gt;= 5 * 5 * 1&lt;/span&gt;&lt;span style=&quot;background-color: initial; white-space: pre;&quot;&gt;&#x9;&lt;/span&gt;&lt;span style=&quot;background-color: initial;&quot;&gt;= 25&lt;/span&gt;&lt;/p&gt;&lt;p&gt;Addition&lt;span style=&quot;white-space: pre;&quot;&gt;&#x9;&lt;/span&gt;&lt;span style=&quot;white-space: pre;&quot;&gt;&#x9;&lt;/span&gt;= 25 - 1&lt;span style=&quot;white-space: pre;&quot;&gt;&#x9;&lt;/span&gt;&lt;span style=&quot;white-space: pre;&quot;&gt;&#x9;&lt;/span&gt;= 24&lt;/p&gt;&lt;p&gt;Total&lt;span style=&quot;white-space: pre;&quot;&gt;&#x9;&lt;/span&gt;&lt;span style=&quot;white-space: pre;&quot;&gt;&#x9;&lt;/span&gt;&lt;span style=&quot;white-space: pre;&quot;&gt;&#x9;&lt;/span&gt;&lt;span style=&quot;white-space: pre;&quot;&gt;&#x9;&lt;span style=&quot;white-space: pre;&quot;&gt;&#x9;&lt;/span&gt;&lt;/span&gt;= 49&lt;/p&gt;&lt;p&gt;&lt;br&gt;&lt;/p&gt;&lt;h1 style=&quot;margin-top: 0px;&quot;&gt;&lt;font style=&quot;font-size: 20px;&quot;&gt;Total Flops&lt;/font&gt;&lt;/h1&gt;&lt;p&gt;Total output pixels&lt;span style=&quot;white-space: pre;&quot;&gt;&#x9;&lt;/span&gt;= 24 * 24 * 6&amp;nbsp;&lt;span style=&quot;white-space: pre;&quot;&gt;&#x9;&lt;/span&gt;= 3456&lt;/p&gt;&lt;p&gt;Flops per output pixel&lt;span style=&quot;white-space: pre;&quot;&gt;&#x9;&lt;span style=&quot;white-space: pre;&quot;&gt;&#x9;&lt;/span&gt;&lt;span style=&quot;white-space: pre;&quot;&gt;&#x9;&lt;/span&gt;&lt;/span&gt;= 49&lt;/p&gt;&lt;p&gt;Total Flops&lt;span style=&quot;white-space: pre;&quot;&gt;&#x9;&lt;/span&gt;&lt;span style=&quot;white-space: pre;&quot;&gt;&#x9;&lt;/span&gt;= 3456 * 49&lt;span style=&quot;white-space: pre;&quot;&gt;&#x9;&lt;/span&gt;= 169344&lt;/p&gt;&lt;p&gt;Bias Addition&lt;span style=&quot;white-space: pre;&quot;&gt;&#x9;&lt;/span&gt;&lt;span style=&quot;white-space: pre;&quot;&gt;&#x9;&lt;/span&gt;&lt;span style=&quot;white-space: pre;&quot;&gt;&#x9;&lt;span style=&quot;white-space: pre;&quot;&gt;&#x9;&lt;span style=&quot;white-space: pre;&quot;&gt;&#x9;&lt;/span&gt;&lt;/span&gt;&lt;/span&gt;= 3456&lt;/p&gt;&lt;p&gt;Total Flops = 169344 + 3456&lt;span style=&quot;white-space: pre;&quot;&gt;&#x9;&lt;span style=&quot;white-space: pre;&quot;&gt;&#x9;&lt;/span&gt;&lt;/span&gt;= 172800&lt;/p&gt;" style="text;html=1;whiteSpace=wrap;overflow=hidden;rounded=0;" vertex="1" parent="1">
          <mxGeometry x="776" y="1937.25" width="289" height="327.75" as="geometry" />
        </mxCell>
        <mxCell id="l8auqSjwiv6IMwPf-op2-172" value="" style="shape=sumEllipse;perimeter=ellipsePerimeter;whiteSpace=wrap;html=1;backgroundOutline=1;" vertex="1" parent="1">
          <mxGeometry x="99.5" y="2066.5" width="29" height="29" as="geometry" />
        </mxCell>
        <mxCell id="l8auqSjwiv6IMwPf-op2-180" value="" style="shape=flexArrow;endArrow=classic;startArrow=classic;html=1;rounded=0;" edge="1" parent="1">
          <mxGeometry width="100" height="100" relative="1" as="geometry">
            <mxPoint x="214" y="2082" as="sourcePoint" />
            <mxPoint x="310" y="2082" as="targetPoint" />
          </mxGeometry>
        </mxCell>
        <mxCell id="l8auqSjwiv6IMwPf-op2-181" value="" style="group" vertex="1" connectable="0" parent="1">
          <mxGeometry x="336" y="2010" width="138" height="138" as="geometry" />
        </mxCell>
        <mxCell id="l8auqSjwiv6IMwPf-op2-174" value="" style="whiteSpace=wrap;html=1;aspect=fixed;" vertex="1" parent="l8auqSjwiv6IMwPf-op2-181">
          <mxGeometry width="138" height="138" as="geometry" />
        </mxCell>
        <mxCell id="l8auqSjwiv6IMwPf-op2-175" value="1 * 5 * 5" style="whiteSpace=wrap;html=1;aspect=fixed;fillColor=#d5e8d4;strokeColor=#82b366;" vertex="1" parent="l8auqSjwiv6IMwPf-op2-181">
          <mxGeometry width="47" height="47" as="geometry" />
        </mxCell>
        <mxCell id="l8auqSjwiv6IMwPf-op2-177" value="5 * 5" style="whiteSpace=wrap;html=1;aspect=fixed;" vertex="1" parent="l8auqSjwiv6IMwPf-op2-181">
          <mxGeometry x="91" y="91" width="47" height="47" as="geometry" />
        </mxCell>
        <mxCell id="l8auqSjwiv6IMwPf-op2-178" value="" style="endArrow=none;dashed=1;html=1;dashPattern=1 3;strokeWidth=2;rounded=0;" edge="1" parent="l8auqSjwiv6IMwPf-op2-181">
          <mxGeometry width="50" height="50" relative="1" as="geometry">
            <mxPoint x="65" y="28.996451612903456" as="sourcePoint" />
            <mxPoint x="120" y="29.440000000000055" as="targetPoint" />
          </mxGeometry>
        </mxCell>
        <mxCell id="l8auqSjwiv6IMwPf-op2-179" value="" style="endArrow=none;dashed=1;html=1;dashPattern=1 3;strokeWidth=2;rounded=0;" edge="1" parent="l8auqSjwiv6IMwPf-op2-181">
          <mxGeometry width="50" height="50" relative="1" as="geometry">
            <mxPoint x="23" y="72.55999999999995" as="sourcePoint" />
            <mxPoint x="23" y="124" as="targetPoint" />
          </mxGeometry>
        </mxCell>
        <mxCell id="l8auqSjwiv6IMwPf-op2-182" value="" style="endArrow=none;dashed=1;html=1;dashPattern=1 3;strokeWidth=2;rounded=0;" edge="1" parent="l8auqSjwiv6IMwPf-op2-181">
          <mxGeometry width="50" height="50" relative="1" as="geometry">
            <mxPoint x="51.410000000000025" y="52.5" as="sourcePoint" />
            <mxPoint x="86.60000000000002" y="85.5" as="targetPoint" />
          </mxGeometry>
        </mxCell>
        <mxCell id="l8auqSjwiv6IMwPf-op2-183" value="24 * 24" style="whiteSpace=wrap;html=1;aspect=fixed;" vertex="1" parent="1">
          <mxGeometry x="550" y="2023" width="116" height="116" as="geometry" />
        </mxCell>
        <mxCell id="l8auqSjwiv6IMwPf-op2-184" value="Stride 1&lt;div&gt;No Padding&lt;/div&gt;" style="text;html=1;align=center;verticalAlign=middle;whiteSpace=wrap;rounded=0;" vertex="1" parent="1">
          <mxGeometry x="231" y="2092" width="69" height="30" as="geometry" />
        </mxCell>
        <mxCell id="l8auqSjwiv6IMwPf-op2-185" value="" style="endArrow=classic;html=1;rounded=0;" edge="1" parent="1">
          <mxGeometry width="50" height="50" relative="1" as="geometry">
            <mxPoint x="485" y="2088" as="sourcePoint" />
            <mxPoint x="542" y="2088" as="targetPoint" />
          </mxGeometry>
        </mxCell>
        <mxCell id="l8auqSjwiv6IMwPf-op2-186" value="Convolution Operation" style="text;html=1;align=center;verticalAlign=middle;whiteSpace=wrap;rounded=0;" vertex="1" parent="1">
          <mxGeometry x="372" y="2177" width="60" height="30" as="geometry" />
        </mxCell>
        <mxCell id="l8auqSjwiv6IMwPf-op2-187" value="Output" style="text;html=1;align=center;verticalAlign=middle;whiteSpace=wrap;rounded=0;" vertex="1" parent="1">
          <mxGeometry x="578" y="2177" width="60" height="30" as="geometry" />
        </mxCell>
        <mxCell id="l8auqSjwiv6IMwPf-op2-188" value="" style="shape=flexArrow;endArrow=classic;html=1;rounded=0;" edge="1" parent="1">
          <mxGeometry width="50" height="50" relative="1" as="geometry">
            <mxPoint x="276" y="1778" as="sourcePoint" />
            <mxPoint x="352" y="1778" as="targetPoint" />
          </mxGeometry>
        </mxCell>
        <mxCell id="l8auqSjwiv6IMwPf-op2-189" value="" style="shape=flexArrow;endArrow=classic;html=1;rounded=0;" edge="1" parent="1">
          <mxGeometry width="50" height="50" relative="1" as="geometry">
            <mxPoint x="677" y="2091" as="sourcePoint" />
            <mxPoint x="753" y="2091" as="targetPoint" />
          </mxGeometry>
        </mxCell>
        <mxCell id="l8auqSjwiv6IMwPf-op2-190" value="&lt;h1 style=&quot;margin-top: 0px;&quot;&gt;&lt;font style=&quot;font-size: 19px;&quot;&gt;Flops Per Output Neuron&lt;/font&gt;&lt;/h1&gt;&lt;p&gt;&lt;span style=&quot;background-color: initial;&quot;&gt;Multiplication&lt;/span&gt;&lt;span style=&quot;background-color: initial; white-space: pre;&quot;&gt;&#x9;&lt;span style=&quot;white-space: pre;&quot;&gt;&#x9;&lt;span style=&quot;white-space: pre;&quot;&gt;&#x9;&lt;/span&gt;&lt;/span&gt;&lt;/span&gt;&lt;span style=&quot;background-color: initial;&quot;&gt;= &lt;span style=&quot;white-space: pre;&quot;&gt;&#x9;&lt;/span&gt;256&lt;/span&gt;&lt;/p&gt;&lt;p&gt;Addition &lt;span style=&quot;white-space: pre;&quot;&gt;&#x9;&lt;/span&gt;= 256 - 1 &lt;span style=&quot;white-space: pre;&quot;&gt;&#x9;&lt;span style=&quot;white-space: pre;&quot;&gt;&#x9;&lt;/span&gt;&lt;/span&gt;= &lt;span style=&quot;white-space: pre;&quot;&gt;&#x9;&lt;/span&gt;255&lt;/p&gt;&lt;p&gt;Total&lt;span style=&quot;white-space: pre;&quot;&gt;&#x9;&lt;/span&gt;= 256 + 255&lt;span style=&quot;white-space: pre;&quot;&gt;&#x9;&lt;/span&gt;=&lt;span style=&quot;white-space: pre;&quot;&gt;&#x9;&lt;/span&gt;511&lt;/p&gt;&lt;p&gt;&lt;br&gt;&lt;/p&gt;&lt;h1 style=&quot;margin-top: 0px;&quot;&gt;&lt;font style=&quot;font-size: 20px;&quot;&gt;Total Flops&lt;/font&gt;&lt;/h1&gt;&lt;p&gt;Total output pixels&lt;span style=&quot;white-space: pre;&quot;&gt;&#x9;&lt;span style=&quot;white-space: pre;&quot;&gt;&#x9;&lt;span style=&quot;white-space: pre;&quot;&gt;&#x9;&lt;/span&gt;&lt;/span&gt;&lt;/span&gt;= 120&lt;/p&gt;&lt;p&gt;Flops per output pixel&lt;span style=&quot;white-space: pre;&quot;&gt;&#x9;&lt;span style=&quot;white-space: pre;&quot;&gt;&#x9;&lt;/span&gt;&lt;/span&gt;= 511&lt;/p&gt;&lt;p&gt;Total Flops&lt;span style=&quot;white-space: pre;&quot;&gt;&#x9;&lt;/span&gt;= 511 * 120&lt;span style=&quot;white-space: pre;&quot;&gt;&#x9;&lt;/span&gt;= 61320&lt;/p&gt;&lt;p&gt;Bias Addition&lt;span style=&quot;white-space: pre;&quot;&gt;&#x9;&lt;/span&gt;&lt;span style=&quot;white-space: pre;&quot;&gt;&#x9;&lt;/span&gt;&lt;span style=&quot;white-space: pre;&quot;&gt;&#x9;&lt;span style=&quot;white-space: pre;&quot;&gt;&#x9;&lt;/span&gt;&lt;/span&gt;= 120&lt;/p&gt;&lt;p&gt;Total Flops&lt;span style=&quot;white-space: pre;&quot;&gt;&#x9;&lt;/span&gt;= 61320 + 120&lt;span style=&quot;white-space: pre;&quot;&gt;&#x9;&lt;/span&gt;= 61440&lt;/p&gt;" style="text;html=1;whiteSpace=wrap;overflow=hidden;rounded=0;" vertex="1" parent="1">
          <mxGeometry x="695.5" y="1151.25" width="303.5" height="328.75" as="geometry" />
        </mxCell>
        <mxCell id="l8auqSjwiv6IMwPf-op2-191" value="" style="rounded=0;whiteSpace=wrap;html=1;" vertex="1" parent="1">
          <mxGeometry x="521.19" y="1141.5" width="25" height="117.5" as="geometry" />
        </mxCell>
        <mxCell id="l8auqSjwiv6IMwPf-op2-192" value="120*1" style="text;html=1;align=center;verticalAlign=middle;whiteSpace=wrap;rounded=0;" vertex="1" parent="1">
          <mxGeometry x="509.03000000000003" y="1105" width="49.31" height="30" as="geometry" />
        </mxCell>
        <mxCell id="l8auqSjwiv6IMwPf-op2-193" value="" style="whiteSpace=wrap;html=1;aspect=fixed;fillColor=#d5e8d4;strokeColor=#82b366;" vertex="1" parent="1">
          <mxGeometry x="521.19" y="1141.5" width="25.5" height="25.5" as="geometry" />
        </mxCell>
        <mxCell id="l8auqSjwiv6IMwPf-op2-197" value="" style="rounded=0;whiteSpace=wrap;html=1;fillColor=#d5e8d4;strokeColor=#82b366;" vertex="1" parent="1">
          <mxGeometry x="305.5" y="1140" width="97.5" height="19" as="geometry" />
        </mxCell>
        <mxCell id="l8auqSjwiv6IMwPf-op2-198" value="" style="rounded=0;whiteSpace=wrap;html=1;" vertex="1" parent="1">
          <mxGeometry x="305.5" y="1159" width="97.5" height="19" as="geometry" />
        </mxCell>
        <mxCell id="l8auqSjwiv6IMwPf-op2-200" value="" style="rounded=0;whiteSpace=wrap;html=1;" vertex="1" parent="1">
          <mxGeometry x="305" y="1236.5" width="97.5" height="19" as="geometry" />
        </mxCell>
        <mxCell id="l8auqSjwiv6IMwPf-op2-201" value="" style="endArrow=none;dashed=1;html=1;dashPattern=1 3;strokeWidth=2;rounded=0;" edge="1" parent="1">
          <mxGeometry width="50" height="50" relative="1" as="geometry">
            <mxPoint x="353.25" y="1233" as="sourcePoint" />
            <mxPoint x="353.25" y="1183" as="targetPoint" />
          </mxGeometry>
        </mxCell>
        <mxCell id="l8auqSjwiv6IMwPf-op2-202" value="5 * 5" style="whiteSpace=wrap;html=1;aspect=fixed;fillColor=#d5e8d4;strokeColor=#82b366;" vertex="1" parent="1">
          <mxGeometry x="-58" y="2012" width="47" height="47" as="geometry" />
        </mxCell>
        <mxCell id="l8auqSjwiv6IMwPf-op2-203" value="" style="whiteSpace=wrap;html=1;aspect=fixed;fillColor=#d5e8d4;strokeColor=#82b366;" vertex="1" parent="1">
          <mxGeometry x="550" y="2023" width="17" height="17" as="geometry" />
        </mxCell>
      </root>
    </mxGraphModel>
  </diagram>
</mxfile>
